<svg width="542" height="452" viewBox="0 0 542 452" fill="none" xmlns="http://www.w3.org/2000/svg">
<path d="M101.192 401.957C201.971 467.617 365.431 467.617 466.21 401.957C566.99 336.296 566.99 229.854 466.21 164.207C365.431 98.5604 201.971 98.5469 101.192 164.207C0.412458 229.868 0.375589 336.31 101.192 401.957Z" fill="#FAFAFA"/>
<path d="M495.289 159.395C495.842 151.775 501.164 138.787 509.042 129.568C516.92 120.348 529.53 115.847 537.309 119.576C544.56 123.06 542.963 133.771 533.401 140.102C523.839 146.434 509.607 154.216 504.728 166.214L495.289 180.613V159.395Z" fill="#02897A"/>
<path opacity="0.2" d="M495.289 159.395C495.842 151.775 501.164 138.787 509.042 129.568C516.92 120.348 529.53 115.847 537.309 119.576C544.56 123.06 542.963 133.771 533.401 140.102C523.839 146.434 509.607 154.216 504.728 166.214L495.289 180.613V159.395Z" fill="black"/>
<path d="M534.298 123.101C525.265 124.999 498.792 143.804 495.326 172.194" stroke="white" stroke-miterlimit="10" stroke-linecap="round"/>
<path d="M496.358 193.602C497.747 189.534 503.794 181.983 512.495 178.281C521.197 174.58 527.76 171.272 530.93 165.307C534.101 159.341 528.583 153.484 519.796 153.904C511.008 154.325 496.371 164.479 495.338 180.613L496.358 193.602Z" fill="#02897A"/>
<path d="M524.269 158.73C516.674 159.557 498.214 171.909 495.731 185.738" stroke="white" stroke-miterlimit="10" stroke-linecap="round"/>
<path d="M42.3957 232.322C42.0202 221.551 39.8496 210.948 35.9926 201.044C29.5156 184.111 16.4143 175.149 9.43347 173.929C2.45265 172.709 -4.76169 182.064 4.12411 193.181C13.0099 204.298 30.0441 219.185 34.9356 241.704L42.9365 257.079L42.3957 232.322Z" fill="#02897A"/>
<path opacity="0.2" d="M42.3957 232.322C42.0202 221.551 39.8496 210.948 35.9926 201.044C29.5156 184.111 16.4143 175.149 9.43347 173.929C2.45265 172.709 -4.76169 182.064 4.12411 193.181C13.0099 204.298 30.0441 219.185 34.9356 241.704L42.9365 257.079L42.3957 232.322Z" fill="black"/>
<path d="M9.43347 179.094C23.7638 188.503 40.3679 213.192 42.6907 246.002" stroke="white" stroke-linecap="round" stroke-linejoin="round"/>
<path d="M41.3019 272.846C39.3232 264.101 34.149 255.573 23.813 247.005C13.4769 238.436 -0.337232 231.075 0.793465 222.33C1.92416 213.585 12.3954 214.195 20.0645 218.059C27.7335 221.923 41.0315 237.826 42.9365 257.051L41.3019 272.846Z" fill="#02897A"/>
<path d="M8.04468 219.592C17.9997 222.303 39.3601 243.86 42.4572 262.217" stroke="white" stroke-linecap="round" stroke-linejoin="round"/>
<path d="M44.1287 278.242C43.303 277.648 42.6163 276.848 42.125 275.905C41.6337 274.962 41.3517 273.905 41.302 272.819V77.1122C41.3536 76.0268 41.6365 74.9701 42.1276 74.0278C42.6188 73.0856 43.3043 72.2843 44.1287 71.6891L107.509 31.3275C108.329 30.7632 109.272 30.4556 110.238 30.4378C111.204 30.4199 112.156 30.6924 112.992 31.2261C113.828 31.7598 114.517 32.5345 114.984 33.4671C115.452 34.3998 115.68 35.4552 115.645 36.5202V49.5899C115.645 51.5829 116.874 52.3963 118.484 51.3931L197.793 0.890287C198.612 0.326715 199.554 0.0192798 200.518 0.000877567C201.483 -0.0175247 202.434 0.253798 203.27 0.785815C204.106 1.31783 204.795 2.09052 205.263 3.0212C205.732 3.95187 205.962 5.00551 205.929 6.06936V306.89L147.477 344.092L44.1287 278.242Z" fill="#263238"/>
<path d="M203.274 0.795472C202.418 0.334849 201.475 0.104533 200.522 0.123385C199.569 0.142237 198.634 0.409724 197.793 0.903937L118.484 51.4067C116.911 52.41 115.645 51.5965 115.645 49.6035V36.5338C115.68 35.4688 115.452 34.4134 114.985 33.4808C114.517 32.5481 113.828 31.7734 112.992 31.2397C112.156 30.7061 111.204 30.4335 110.238 30.4514C109.272 30.4693 108.329 30.7769 107.509 31.3412L44.1288 71.7027C43.2959 72.2845 42.6074 73.0859 42.1255 74.0347L78.4799 97.1914L205.929 15.9938V6.08301C205.894 5.03358 205.636 4.00796 205.174 3.08931C204.713 2.17065 204.062 1.38481 203.274 0.795472Z" fill="#455A64"/>
<path d="M203.102 4.2798L118.484 58.172C116.911 59.1753 115.645 58.3618 115.645 56.3688V36.5338C115.645 34.5408 114.416 33.7273 112.819 34.7306L49.4381 75.0921C48.613 75.6866 47.9269 76.4876 47.4356 77.4301C46.9444 78.3725 46.662 79.4296 46.6113 80.5153V269.524C46.6614 270.612 46.9449 271.671 47.4385 272.613C47.9321 273.556 48.6216 274.356 49.4504 274.948L152.823 340.784L205.929 306.971V6.08298C205.929 4.08999 204.663 3.29008 203.102 4.2798Z" fill="#37474F"/>
<path d="M47.447 272.534C47.9215 273.489 48.6116 274.292 49.4503 274.866L152.823 340.703L205.929 306.89V171.597L47.447 272.534Z" fill="#263238"/>
<path d="M60.278 315.621L59.5037 315.133C58.8435 314.659 58.2936 314.021 57.8986 313.27C57.5036 312.518 57.2745 311.675 57.23 310.808V127.167C57.2716 126.3 57.4994 125.455 57.8947 124.703C58.29 123.951 58.8414 123.313 59.5037 122.843L230.214 14.1091C230.917 13.7149 231.694 13.5095 232.482 13.5095C233.27 13.5095 234.047 13.7149 234.749 14.1091L235.524 14.6107C236.186 15.0816 236.737 15.7192 237.133 16.4711C237.528 17.223 237.756 18.0677 237.797 18.9356V202.535C237.753 203.402 237.524 204.246 237.129 204.997C236.734 205.749 236.184 206.387 235.524 206.86L64.813 315.621C64.1105 316.015 63.3336 316.22 62.5455 316.22C61.7574 316.22 60.9804 316.015 60.278 315.621Z" fill="#F5F5F5"/>
<path d="M67.8487 131.005L57.8937 124.66C57.4877 125.407 57.2595 126.256 57.23 127.127V310.768C57.2745 311.635 57.5036 312.478 57.8986 313.23C58.2936 313.981 58.8435 314.619 59.5037 315.092L60.278 315.581C60.9804 315.975 61.7574 316.18 62.5455 316.18C63.3336 316.18 64.1105 315.975 64.813 315.581L67.8487 313.642V131.005Z" fill="#E0E0E0"/>
<path d="M62.5518 314.143V130.503C62.594 129.637 62.8208 128.793 63.2137 128.042C63.6066 127.291 64.1546 126.652 64.8131 126.178L235.524 17.4444C236.753 16.658 237.797 17.2952 237.797 18.895V202.535C237.753 203.403 237.524 204.246 237.129 204.997C236.734 205.749 236.184 206.387 235.524 206.86L64.8131 315.621C63.5595 316.38 62.5518 315.743 62.5518 314.143Z" fill="#EBEBEB"/>
<path d="M75.9971 132.591L224.34 38.12C225.901 37.1167 227.166 37.9302 227.166 39.9232V181.521C227.117 182.607 226.835 183.664 226.343 184.607C225.852 185.549 225.165 186.35 224.34 186.944L75.9971 281.401C74.4363 282.404 73.1704 281.591 73.1704 279.598V138.014C73.222 136.928 73.5049 135.872 73.996 134.929C74.4872 133.987 75.1727 133.186 75.9971 132.591Z" fill="white"/>
<path d="M100.516 125.527C109.758 119.643 117.243 124.415 117.243 136.184C117.243 147.952 109.758 162.255 100.516 168.139C91.2738 174.023 83.7891 169.265 83.7891 157.496C83.7891 145.728 91.2738 131.411 100.516 125.527Z" fill="#FFB900"/>
<path d="M116.014 168.207C116.581 167.04 117.391 166.039 118.376 165.283C119.362 164.528 120.495 164.04 121.684 163.86C122.873 163.681 124.084 163.814 125.217 164.249C126.351 164.684 127.375 165.408 128.206 166.363L147.477 188.503L184.102 89.382C184.639 87.9286 185.535 86.6707 186.689 85.7511C187.842 84.8315 189.206 84.2871 190.625 84.1798C192.045 84.0725 193.463 84.4065 194.72 85.144C195.976 85.8814 197.019 86.9927 197.731 88.3516L227.142 144.535V181.521C227.092 182.607 226.81 183.664 226.319 184.607C225.828 185.549 225.141 186.35 224.315 186.944L75.9971 281.401C74.4363 282.404 73.1704 281.591 73.1704 279.598V256.143L116.014 168.207Z" fill="#FFB900"/>
<path d="M92.171 335.958L91.3844 335.456C90.7259 334.982 90.1779 334.344 89.785 333.592C89.3921 332.841 89.1653 331.998 89.123 331.131V147.423C89.1653 146.557 89.3921 145.714 89.785 144.962C90.1779 144.211 90.7259 143.572 91.3844 143.098L262.107 34.3783C262.806 33.979 263.582 33.7705 264.369 33.7705C265.156 33.7705 265.931 33.979 266.63 34.3783L267.417 34.8664C268.075 35.3405 268.623 35.9791 269.016 36.7306C269.409 37.482 269.636 38.3251 269.678 39.1913V222.832C269.643 223.7 269.419 224.546 269.025 225.298C268.632 226.051 268.08 226.688 267.417 227.157L96.6692 335.958C95.9735 336.353 95.2025 336.559 94.4201 336.559C93.6378 336.559 92.8667 336.353 92.171 335.958Z" fill="#F5F5F5"/>
<path d="M99.7172 151.314L89.7622 144.969C89.3577 145.713 89.1295 146.557 89.0985 147.423V331.064C89.1407 331.93 89.3675 332.773 89.7604 333.524C90.1533 334.276 90.7013 334.914 91.3599 335.388L92.1465 335.89C92.8453 336.289 93.6208 336.498 94.4079 336.498C95.1949 336.498 95.9704 336.289 96.6693 335.89L99.7172 333.951V151.314Z" fill="#E0E0E0"/>
<path d="M94.4078 334.453V150.813C94.451 149.947 94.6782 149.104 95.071 148.353C95.4639 147.601 96.0113 146.962 96.6692 146.488L267.392 37.7541C268.621 36.9542 269.654 37.605 269.654 39.1912V222.832C269.618 223.7 269.394 224.546 269.001 225.298C268.607 226.051 268.056 226.688 267.392 227.156L96.6692 335.958C95.4279 336.69 94.4078 336.039 94.4078 334.453Z" fill="#EBEBEB"/>
<path d="M107.866 152.928L256.208 58.4436C257.769 57.4539 259.035 58.2674 259.035 60.2468V201.817C258.984 202.903 258.702 203.96 258.211 204.902C257.719 205.845 257.033 206.646 256.208 207.24L107.866 301.725C106.292 302.714 105.027 301.914 105.027 299.921V158.351C105.078 157.264 105.362 156.206 105.855 155.263C106.349 154.32 107.038 153.52 107.866 152.928Z" fill="white"/>
<path d="M132.385 145.836C141.614 139.952 149.111 144.725 149.111 156.493C149.111 168.261 141.614 182.565 132.385 188.449C123.155 194.333 115.658 189.56 115.658 177.792C115.658 166.024 123.142 151.721 132.385 145.836Z" fill="#11B5E4"/>
<path d="M147.882 188.517C148.448 187.351 149.257 186.349 150.241 185.593C151.225 184.838 152.358 184.35 153.546 184.17C154.734 183.99 155.944 184.123 157.077 184.558C158.209 184.993 159.232 185.718 160.062 186.673L179.431 208.813L216.044 109.692C216.58 108.235 217.476 106.974 218.631 106.051C219.785 105.129 221.151 104.583 222.573 104.476C223.995 104.369 225.416 104.704 226.673 105.444C227.931 106.184 228.975 107.299 229.686 108.662L259.084 164.845V201.817C259.033 202.903 258.751 203.96 258.26 204.902C257.768 205.845 257.082 206.646 256.257 207.24L107.915 301.725C106.342 302.714 105.076 301.914 105.076 299.921V276.466L147.882 188.517Z" fill="#11B5E4"/>
<path d="M124.003 356.172L123.228 355.684C122.57 355.209 122.022 354.571 121.629 353.819C121.236 353.068 121.009 352.225 120.967 351.359V167.718C121.009 166.85 121.236 166.006 121.632 165.254C122.027 164.502 122.578 163.864 123.241 163.393L293.951 54.6598C294.654 54.2657 295.431 54.0603 296.219 54.0603C297.007 54.0603 297.784 54.2657 298.486 54.6598L299.261 55.1615C299.923 55.6324 300.474 56.27 300.87 57.0219C301.265 57.7738 301.493 58.6185 301.534 59.4864V243.127C301.49 243.994 301.261 244.837 300.866 245.589C300.471 246.34 299.921 246.978 299.261 247.452L128.55 356.172C127.846 356.568 127.067 356.775 126.276 356.775C125.486 356.775 124.707 356.568 124.003 356.172Z" fill="#F5F5F5"/>
<path d="M131.586 171.597L121.668 165.252C121.262 166 121.033 166.848 121.004 167.719V351.36C121.046 352.226 121.273 353.069 121.666 353.821C122.059 354.572 122.607 355.211 123.265 355.685L124.04 356.173C124.742 356.567 125.519 356.772 126.307 356.772C127.095 356.772 127.872 356.567 128.575 356.173L131.623 354.234L131.586 171.597Z" fill="#E0E0E0"/>
<path d="M126.276 354.735V171.095C126.319 170.229 126.545 169.386 126.938 168.634C127.331 167.883 127.879 167.244 128.538 166.77L299.248 58.0232C300.477 57.2369 301.522 57.8741 301.522 59.4739V243.128C301.478 243.995 301.248 244.838 300.853 245.59C300.458 246.341 299.909 246.979 299.248 247.453L128.538 356.173C127.284 356.973 126.276 356.295 126.276 354.735Z" fill="#EBEBEB"/>
<path d="M139.722 173.17L288.064 78.6988C289.625 77.6956 290.891 78.509 290.891 80.502V222.072C290.84 223.158 290.558 224.215 290.067 225.158C289.575 226.1 288.889 226.901 288.064 227.496L139.722 321.993C138.161 322.997 136.895 322.183 136.895 320.19V178.579C136.949 177.496 137.232 176.442 137.723 175.502C138.214 174.563 138.899 173.763 139.722 173.17Z" fill="white"/>
<path d="M164.241 166.119C173.483 160.235 180.968 165.007 180.968 176.776C180.968 188.544 173.483 202.847 164.241 208.731C154.998 214.615 147.477 209.87 147.477 198.088C147.477 186.307 154.998 172.003 164.241 166.119Z" fill="#F03E3D"/>
<path d="M179.739 208.799C180.306 207.633 181.115 206.631 182.101 205.875C183.086 205.12 184.22 204.632 185.409 204.452C186.598 204.273 187.808 204.406 188.942 204.841C190.075 205.276 191.099 206 191.93 206.955L211.238 229.095L247.863 129.974C248.401 128.521 249.297 127.263 250.45 126.343C251.603 125.424 252.967 124.879 254.387 124.772C255.806 124.665 257.225 124.999 258.481 125.736C259.737 126.473 260.781 127.585 261.493 128.944L290.903 185.127V222.072C290.848 223.158 290.563 224.215 290.07 225.157C289.577 226.099 288.89 226.9 288.064 227.495L139.722 321.993C138.161 322.996 136.895 322.183 136.895 320.19V296.735L179.739 208.799Z" fill="#F03E3D"/>
<path d="M152.823 340.703L168.751 330.561V350.857L152.823 340.703Z" fill="#263238"/>
<path d="M168.751 198.875V347.251C168.751 349.244 167.522 350.044 165.924 349.055L152.823 340.703L147.477 344.092L171.197 359.196C172.074 359.691 173.045 359.949 174.03 359.949C175.015 359.949 175.986 359.691 176.863 359.196L341.17 254.611C341.997 254.017 342.685 253.217 343.178 252.274C343.671 251.332 343.956 250.275 344.009 249.188V94.0326C344.041 92.9672 343.811 91.9122 343.342 90.9803C342.873 90.0483 342.183 89.2744 341.346 88.7412C340.51 88.208 339.557 87.9355 338.591 87.9529C337.625 87.9703 336.681 88.2769 335.861 88.84L171.59 193.465C170.764 194.056 170.076 194.854 169.582 195.794C169.089 196.735 168.804 197.79 168.751 198.875Z" fill="#263238"/>
<path d="M179.431 202.034L344.12 97.1916V94.0326C344.152 92.9672 343.921 91.9122 343.452 90.9803C342.983 90.0483 342.294 89.2744 341.457 88.7412C340.62 88.208 339.668 87.9355 338.702 87.9529C337.736 87.9703 336.792 88.2769 335.971 88.84L171.59 193.465C170.751 194.039 170.061 194.843 169.587 195.797L179.431 202.034Z" fill="#455A64"/>
<path d="M341.17 92.2289L176.9 196.854C176.073 197.448 175.385 198.249 174.892 199.191C174.398 200.133 174.114 201.191 174.061 202.277V357.392C174.061 359.385 175.29 360.199 176.9 359.195L341.17 254.611C341.997 254.017 342.685 253.216 343.178 252.274C343.671 251.332 343.956 250.274 344.009 249.187V94.032C344.009 92.0391 342.731 91.2256 341.17 92.2289Z" fill="#37474F"/>
<path d="M217.801 292.939C217.487 292.944 217.177 292.855 216.904 292.681C216.577 292.444 216.314 292.113 216.143 291.724C215.972 291.335 215.9 290.902 215.933 290.472V215.063C215.977 214.079 216.232 213.12 216.679 212.266C217.126 211.413 217.751 210.689 218.502 210.155L298.953 158.92C299.265 158.649 299.642 158.488 300.038 158.457C300.433 158.425 300.828 158.526 301.171 158.745C301.514 158.964 301.789 159.292 301.962 159.686C302.134 160.08 302.195 160.521 302.137 160.954V236.362C302.093 237.347 301.838 238.306 301.391 239.159C300.944 240.013 300.319 240.737 299.568 241.27L219.116 292.573C218.714 292.819 218.261 292.945 217.801 292.939ZM300.269 159.842C300.018 159.855 299.775 159.944 299.568 160.1L219.116 211.321C218.552 211.738 218.083 212.292 217.744 212.941C217.405 213.59 217.206 214.316 217.162 215.063V290.472C217.14 290.662 217.161 290.856 217.223 291.036C217.285 291.216 217.387 291.376 217.519 291.502C217.683 291.568 217.859 291.586 218.031 291.555C218.203 291.524 218.365 291.445 218.502 291.326L298.953 240.091C299.518 239.678 299.988 239.126 300.327 238.48C300.666 237.833 300.865 237.108 300.908 236.362V160.954C300.931 160.763 300.911 160.569 300.848 160.389C300.786 160.209 300.684 160.049 300.551 159.924C300.466 159.868 300.368 159.84 300.269 159.842Z" fill="#FAFAFA"/>
<path d="M230.767 227.997C230.066 228.005 229.375 227.809 228.764 227.427C228.005 226.853 227.399 226.064 227.01 225.144C226.621 224.224 226.463 223.205 226.552 222.194C226.683 219.59 227.368 217.056 228.551 214.798C229.734 212.539 231.381 210.619 233.361 209.192C234.079 208.548 234.959 208.16 235.882 208.08C236.806 208 237.729 208.233 238.53 208.747C239.331 209.26 239.971 210.031 240.365 210.956C240.758 211.881 240.888 212.916 240.735 213.924C240.606 216.529 239.923 219.064 238.74 221.323C237.557 223.582 235.908 225.502 233.926 226.926C232.973 227.574 231.886 227.942 230.767 227.997ZM236.568 209.477C235.648 209.522 234.755 209.83 233.975 210.372C232.182 211.672 230.691 213.42 229.624 215.474C228.556 217.528 227.942 219.83 227.83 222.194C227.667 222.97 227.735 223.782 228.022 224.512C228.31 225.243 228.803 225.851 229.428 226.249C230.053 226.647 230.777 226.813 231.494 226.723C232.211 226.632 232.883 226.29 233.41 225.746C235.202 224.445 236.692 222.697 237.76 220.643C238.827 218.59 239.442 216.288 239.555 213.924C239.639 213.151 239.536 212.366 239.255 211.652C238.975 210.937 238.527 210.317 237.957 209.857C237.535 209.591 237.054 209.459 236.568 209.477Z" fill="#FAFAFA"/>
<path d="M216.548 287.272C216.459 287.25 216.375 287.209 216.302 287.15C216.23 287.11 216.167 287.054 216.115 286.986C216.062 286.919 216.023 286.84 215.999 286.755C215.975 286.671 215.967 286.582 215.974 286.493C215.982 286.405 216.006 286.319 216.044 286.241L239.862 234.654C240.221 233.873 240.74 233.197 241.379 232.678C242.018 232.16 242.758 231.814 243.54 231.669C244.322 231.524 245.124 231.583 245.881 231.843C246.639 232.102 247.33 232.554 247.9 233.162L271.448 258.163C271.505 258.225 271.551 258.299 271.582 258.38C271.613 258.462 271.629 258.549 271.629 258.638C271.629 258.726 271.613 258.813 271.582 258.895C271.551 258.976 271.505 259.05 271.448 259.112C271.391 259.176 271.323 259.226 271.248 259.26C271.173 259.295 271.093 259.313 271.012 259.313C270.931 259.313 270.85 259.295 270.775 259.26C270.701 259.226 270.633 259.176 270.576 259.112L247.028 234.179C246.595 233.722 246.072 233.382 245.499 233.188C244.926 232.993 244.321 232.949 243.73 233.058C243.139 233.167 242.579 233.427 242.096 233.817C241.612 234.207 241.218 234.717 240.944 235.305L217.125 286.906C217.07 287.02 216.987 287.115 216.884 287.18C216.782 287.245 216.666 287.277 216.548 287.272Z" fill="#FAFAFA"/>
<path d="M259.035 246.679C258.954 246.699 258.87 246.699 258.789 246.679C258.642 246.608 258.526 246.476 258.466 246.311C258.406 246.146 258.408 245.962 258.469 245.798L276.905 198.78C277.234 197.925 277.757 197.179 278.423 196.611C279.089 196.043 279.876 195.674 280.708 195.538C281.541 195.401 282.391 195.504 283.178 195.834C283.964 196.164 284.661 196.712 285.201 197.424L301.964 219.781C302.017 219.848 302.057 219.926 302.082 220.011C302.107 220.095 302.116 220.184 302.109 220.273C302.102 220.361 302.079 220.447 302.042 220.526C302.004 220.604 301.953 220.674 301.891 220.73C301.778 220.827 301.638 220.879 301.495 220.876C301.352 220.874 301.214 220.817 301.104 220.716L284.34 198.36C283.938 197.822 283.418 197.407 282.829 197.154C282.24 196.902 281.602 196.821 280.976 196.919C280.351 197.017 279.759 197.291 279.257 197.714C278.754 198.137 278.359 198.696 278.109 199.336L259.674 246.341C259.612 246.463 259.518 246.561 259.403 246.622C259.289 246.683 259.16 246.703 259.035 246.679Z" fill="#FAFAFA"/>
<path d="M319.367 126.625C315.57 126.625 313.026 124.117 313.026 120.389L313.357 96.8794C313.357 90.4665 313.357 80.732 319.847 76.5427C321.187 75.6033 322.733 75.0793 324.32 75.0258C325.908 74.9723 327.479 75.3911 328.87 76.2384C330.26 77.0857 331.418 78.3302 332.222 79.8412C333.026 81.3523 333.447 83.0743 333.44 84.8265C333.44 86.711 333.378 89.0158 333.28 91.6867C333.274 91.955 333.219 92.2192 333.118 92.4636C333.018 92.7081 332.874 92.9278 332.695 93.1099C332.516 93.2919 332.306 93.4325 332.078 93.5234C331.849 93.6143 331.605 93.6536 331.363 93.639C331.12 93.6269 330.883 93.5621 330.663 93.4485C330.444 93.3349 330.247 93.1746 330.084 92.9769C329.92 92.7792 329.794 92.5479 329.712 92.2963C329.63 92.0446 329.594 91.7776 329.605 91.5105C329.691 88.948 329.753 86.6297 329.753 84.8265C329.761 83.7875 329.511 82.7659 329.03 81.8723C328.55 80.9788 327.857 80.2473 327.026 79.7571C326.196 79.2669 325.259 79.0368 324.319 79.0915C323.378 79.1462 322.469 79.4838 321.69 80.0677C317.401 82.7792 317.045 89.5581 317.045 96.8522L316.713 120.389C316.713 122.151 318.151 122.531 319.367 122.531C321.373 122.478 323.281 121.567 324.689 119.991C326.097 118.415 326.895 116.297 326.914 114.084L326.778 104.797C326.778 104.258 326.973 103.74 327.318 103.359C327.664 102.978 328.133 102.763 328.622 102.763C329.111 102.763 329.58 102.978 329.925 103.359C330.271 103.74 330.465 104.258 330.465 104.797L330.601 114.098C330.61 117.4 329.434 120.572 327.329 122.92C325.223 125.268 322.361 126.6 319.367 126.625Z" fill="#BA68C8"/>
<path d="M347.045 271.124L218.821 352.796C218.161 353.269 217.611 353.908 217.216 354.659C216.821 355.41 216.592 356.254 216.548 357.121V358.111C216.591 358.98 216.82 359.826 217.215 360.58C217.61 361.333 218.16 361.974 218.821 362.449L325.807 430.591C326.51 430.985 327.287 431.19 328.075 431.19C328.863 431.19 329.64 430.985 330.342 430.591L458.566 348.919C459.226 348.445 459.776 347.807 460.171 347.056C460.566 346.304 460.795 345.461 460.84 344.594V343.59C460.795 342.723 460.566 341.88 460.171 341.128C459.776 340.377 459.226 339.739 458.566 339.265L351.58 271.124C350.877 270.73 350.1 270.524 349.312 270.524C348.524 270.524 347.747 270.73 347.045 271.124Z" fill="#455A64"/>
<path d="M216.548 357.121V358.11C216.591 358.98 216.82 359.826 217.215 360.579C217.61 361.333 218.16 361.973 218.821 362.449L325.807 430.59C326.504 430.995 327.282 431.2 328.069 431.187V418.497L221.857 350.871L218.821 352.809C218.163 353.281 217.614 353.917 217.219 354.666C216.824 355.415 216.594 356.256 216.548 357.121Z" fill="#263238"/>
<path d="M218.821 352.796L347.045 271.123C347.747 270.729 348.524 270.524 349.312 270.524C350.1 270.524 350.877 270.729 351.58 271.123L458.566 339.265C458.842 339.364 459.083 339.557 459.254 339.817C459.424 340.076 459.516 340.388 459.516 340.709C459.516 341.029 459.424 341.342 459.254 341.601C459.083 341.86 458.842 342.054 458.566 342.153L330.342 423.825C329.64 424.219 328.863 424.424 328.075 424.424C327.287 424.424 326.51 424.219 325.807 423.825L218.821 355.683C218.545 355.584 218.304 355.391 218.134 355.132C217.963 354.872 217.871 354.56 217.871 354.239C217.871 353.919 217.963 353.607 218.134 353.347C218.304 353.088 218.545 352.895 218.821 352.796Z" fill="#37474F"/>
<path d="M234.737 355.683L317.831 408.559C318.53 408.958 319.305 409.167 320.092 409.167C320.879 409.167 321.655 408.958 322.354 408.559L434.661 337.041C434.938 336.942 435.178 336.749 435.349 336.49C435.52 336.23 435.612 335.918 435.612 335.598C435.612 335.277 435.52 334.965 435.349 334.705C435.178 334.446 434.938 334.253 434.661 334.154L351.568 281.278C350.863 280.89 350.087 280.688 349.3 280.688C348.513 280.688 347.737 280.89 347.032 281.278L234.737 352.796C234.461 352.895 234.22 353.088 234.049 353.347C233.879 353.607 233.787 353.919 233.787 354.24C233.787 354.56 233.879 354.872 234.049 355.132C234.22 355.391 234.461 355.584 234.737 355.683Z" fill="white"/>
<path d="M260.362 344.498C266.225 340.77 275.737 340.77 281.6 344.498C287.462 348.227 287.474 354.287 281.6 358.056C275.725 361.825 266.225 361.784 260.362 358.056C254.5 354.328 254.5 348.24 260.362 344.498Z" fill="#02897A"/>
<path d="M434.674 334.194L410.388 318.725L336.647 311.146C335.75 311.054 334.847 311.218 334.024 311.622C333.201 312.025 332.486 312.655 331.947 313.451C331.408 314.247 331.063 315.183 330.946 316.168C330.828 317.153 330.942 318.155 331.276 319.077L344.009 354.233L303.451 351.684C302.661 351.632 301.869 351.778 301.137 352.112C300.405 352.445 299.75 352.957 299.223 353.609C298.695 354.261 298.309 355.037 298.092 355.878C297.875 356.718 297.833 357.602 297.97 358.463L304.213 399.936L317.88 408.64C318.579 409.04 319.354 409.248 320.141 409.248C320.929 409.248 321.704 409.04 322.403 408.64L434.711 337.123C435 337.03 435.255 336.836 435.434 336.568C435.614 336.301 435.709 335.976 435.704 335.643C435.7 335.31 435.597 334.988 435.411 334.727C435.225 334.465 434.966 334.278 434.674 334.194Z" fill="#02897A"/>
<path d="M434.281 235.861V181.738L498.005 141.16V195.269L434.281 235.861Z" fill="#EBEBEB"/>
<path d="M434.281 181.738L354.616 131.004V185.127L434.281 235.86V181.738Z" fill="#E6E6E6"/>
<path d="M434.281 181.738L499.898 139.939L418.34 87.9856L352.735 129.798L434.281 181.738Z" fill="#F0F0F0"/>
<path d="M434.281 181.737V195.268L499.898 153.483V139.939L434.281 181.737Z" fill="#EBEBEB"/>
<path d="M434.281 195.268L498.005 154.69V157.659L434.281 198.251V195.268Z" fill="#E6E6E6"/>
<path d="M352.735 129.798L434.281 181.738V195.268L352.735 143.328V129.798Z" fill="#EBEBEB"/>
<g style="mix-blend-mode:multiply" opacity="0.5">
<path d="M434.281 195.269L354.616 144.535V147.518L434.281 198.251V195.269Z" fill="#E0E0E0"/>
</g>
<path d="M455.26 189.967L477.026 176.097C477.96 175.501 478.722 175.989 478.722 177.182V191.377C478.691 192.028 478.521 192.662 478.227 193.228C477.932 193.793 477.521 194.274 477.026 194.631L455.26 208.514C454.314 209.111 453.564 208.636 453.564 207.443V193.207C453.591 192.557 453.759 191.923 454.054 191.359C454.349 190.795 454.763 190.318 455.26 189.967Z" fill="#E0E0E0"/>
<path d="M456.649 191.581L475.625 179.487C476.252 179.094 476.768 179.42 476.768 180.206V190.889C476.75 191.326 476.636 191.751 476.437 192.129C476.238 192.506 475.96 192.825 475.625 193.059L456.649 205.152C456.022 205.545 455.518 205.152 455.518 204.42V193.737C455.537 193.304 455.649 192.882 455.846 192.507C456.042 192.132 456.318 191.814 456.649 191.581Z" fill="white"/>
<path d="M434.281 174.945V120.823L498.005 80.2305V134.353L434.281 174.945Z" fill="#EBEBEB"/>
<path d="M434.281 120.823L354.616 70.0896V124.212L434.281 174.946V120.823Z" fill="#E6E6E6"/>
<path d="M434.281 120.822L499.898 79.0102L418.34 27.0703L352.735 68.869L434.281 120.822Z" fill="#F5F5F5"/>
<path d="M434.281 120.823V134.354L499.898 92.5685V79.0107L434.281 120.823Z" fill="#EBEBEB"/>
<path d="M434.281 134.354L498.005 93.7615V96.7442L434.281 137.323V134.354Z" fill="#E6E6E6"/>
<path d="M352.735 68.8691L434.281 120.823V134.353L352.735 82.4134V68.8691Z" fill="#EBEBEB"/>
<g style="mix-blend-mode:multiply" opacity="0.5">
<path d="M434.281 134.353L354.616 83.6196V86.5888L434.281 137.322V134.353Z" fill="#E0E0E0"/>
</g>
<path d="M455.26 129.052L477.026 115.183C477.96 114.586 478.722 115.074 478.722 116.267V130.462C478.688 131.113 478.517 131.746 478.223 132.31C477.928 132.875 477.519 133.357 477.026 133.716L455.26 147.572C454.314 148.169 453.564 147.681 453.564 146.488V132.293C453.591 131.642 453.759 131.008 454.054 130.444C454.349 129.881 454.763 129.403 455.26 129.052Z" fill="#E0E0E0"/>
<path d="M456.649 130.652L475.625 118.572C476.252 118.179 476.768 118.49 476.768 119.29V129.879C476.744 130.314 476.628 130.737 476.43 131.113C476.231 131.49 475.955 131.81 475.625 132.048L456.649 144.128C456.022 144.535 455.518 144.21 455.518 143.41V132.767C455.542 132.341 455.657 131.928 455.854 131.56C456.05 131.193 456.323 130.881 456.649 130.652Z" fill="white"/>
<path d="M494.564 136.536L434.281 174.945L358.057 126.368L356.189 127.588L434.281 177.155L496.445 137.729L494.564 136.536Z" fill="#E0E0E0"/>
</svg>
