<svg width="543" height="500" viewBox="0 0 543 500" fill="none" xmlns="http://www.w3.org/2000/svg">
<path d="M122.067 459.975C215.545 513.341 367.105 513.341 460.583 459.975C554.06 406.61 554.074 320.06 460.583 266.694C367.092 213.328 215.545 213.314 122.067 266.694C28.5894 320.074 28.5894 406.595 122.067 459.975Z" fill="#EBEBEB"/>
<path d="M488.078 327.565L474.442 319.085C474.442 319.085 471.1 287.837 473.319 263.641C476.451 229.624 496.983 188.737 521.465 198.319C545.948 207.901 510.222 242.626 502.294 271.457C494.367 300.288 488.078 327.565 488.078 327.565Z" fill="#02897A"/>
<path opacity="0.1" d="M488.078 327.565L474.442 319.085C474.442 319.085 471.1 287.837 473.319 263.641C476.451 229.624 496.983 188.737 521.465 198.319C545.948 207.901 510.222 242.626 502.294 271.457C494.367 300.288 488.078 327.565 488.078 327.565Z" fill="black"/>
<path d="M480.982 323.735C480.855 323.736 480.731 323.688 480.634 323.6C480.537 323.512 480.473 323.389 480.454 323.254C475.816 285.095 488.513 227.419 514.146 205.541C514.198 205.495 514.259 205.461 514.324 205.441C514.39 205.42 514.458 205.414 514.525 205.422C514.593 205.43 514.658 205.452 514.718 205.487C514.777 205.522 514.83 205.569 514.872 205.626C514.959 205.742 515 205.891 514.985 206.039C514.97 206.187 514.901 206.323 514.793 206.417C489.438 228.069 476.9 285.293 481.498 323.099C481.517 323.247 481.48 323.397 481.396 323.516C481.312 323.635 481.187 323.714 481.048 323.735H480.982Z" fill="white"/>
<path d="M495.358 333.6L485.66 327.593C485.66 327.593 484.008 306.153 493.838 280.106C502.387 257.494 523.619 238.612 534.295 242.569C544.97 246.527 544.706 254.625 539.5 263.119C534.295 271.613 502.624 291.865 495.358 333.6Z" fill="#02897A"/>
<path d="M489.346 334.151C489.277 334.147 489.21 334.129 489.147 334.097C489.085 334.065 489.03 334.02 488.984 333.965C488.939 333.909 488.904 333.845 488.882 333.775C488.86 333.705 488.852 333.631 488.857 333.557C492.054 280.191 517.29 253.946 532.458 249.947C532.595 249.912 532.738 249.936 532.859 250.012C532.98 250.088 533.068 250.212 533.105 250.357C533.137 250.501 533.115 250.653 533.044 250.78C532.972 250.907 532.857 250.998 532.722 251.035C516.748 255.275 492.913 283.682 489.927 333.628C489.922 333.703 489.903 333.777 489.871 333.845C489.839 333.912 489.794 333.972 489.74 334.021C489.686 334.07 489.623 334.106 489.555 334.129C489.488 334.151 489.416 334.159 489.346 334.151Z" fill="white"/>
<path d="M95.3517 331.72C95.3517 331.72 97.1618 300.387 80.1442 278.905C63.1266 257.423 40.9694 257.508 33.6365 261.507C26.3036 265.507 21.3754 276.94 33.9932 285.123C46.6111 293.306 73.4455 309.686 77.9113 324.3L95.3517 331.72Z" fill="#02897A"/>
<path opacity="0.1" d="M95.3517 331.72C95.3517 331.72 97.1618 300.387 80.1442 278.905C63.1266 257.423 40.9694 257.508 33.6365 261.507C26.3036 265.507 21.3754 276.94 33.9932 285.123C46.6111 293.306 73.4455 309.686 77.9113 324.3L95.3517 331.72Z" fill="black"/>
<path d="M87.3448 323.876C87.1813 323.874 87.0241 323.808 86.9026 323.691C86.781 323.574 86.7034 323.414 86.6842 323.24C83.1829 288.572 50.786 269.366 37.8775 267.189C37.7908 267.175 37.7074 267.143 37.6323 267.095C37.5571 267.047 37.4915 266.983 37.4394 266.907C37.3873 266.832 37.3495 266.746 37.3284 266.655C37.3072 266.564 37.303 266.469 37.316 266.377C37.329 266.284 37.359 266.195 37.4042 266.114C37.4494 266.034 37.509 265.964 37.5796 265.908C37.6501 265.852 37.7302 265.812 37.8154 265.789C37.9005 265.767 37.9889 265.762 38.0757 265.776C51.2881 267.995 84.4117 287.64 88.0054 323.085C88.0145 323.178 88.0064 323.272 87.9814 323.361C87.9563 323.451 87.915 323.534 87.8597 323.606C87.8044 323.679 87.7363 323.738 87.6593 323.782C87.5822 323.826 87.4978 323.853 87.4109 323.862L87.3448 323.876Z" fill="white"/>
<path d="M81.0426 315.919C76.775 305.517 71.9525 300.854 58.0794 303.341C44.2064 305.828 46.1883 305.447 29.2103 300.797C22.0492 298.847 14.0028 298.536 7.13236 301.843C1.33211 304.669 -3.00156 310.323 2.61371 316.343C8.92925 323.07 18.3497 325.374 25.3259 331.296C26.9084 332.493 28.1666 334.116 28.9725 336.002C30.809 341.005 27.136 346.644 28.2062 351.887C29.2764 357.131 34.4292 359.929 39.265 360.268C44.1007 360.607 48.8704 359.053 53.6929 358.459C58.5154 357.866 63.9325 358.459 67.2621 362.289C70.8294 366.345 70.9219 372.832 74.2382 377.143C79.2061 383.602 91.4144 385.397 98.0206 381.383L115.316 370.712C126.744 354.234 108.709 341.175 99.2625 328.384C94.6778 322.152 83.6058 322.18 81.0426 315.919Z" fill="#02897A"/>
<path d="M104.6 360.763C104.488 360.766 104.377 360.736 104.279 360.676C104.181 360.616 104.1 360.529 104.045 360.424C84.3192 326.236 30.6107 308.938 11.6113 307.525C11.4383 307.51 11.2776 307.423 11.1639 307.283C11.0502 307.143 10.9926 306.961 11.0035 306.775C11.017 306.589 11.0976 306.416 11.2282 306.292C11.3589 306.168 11.5293 306.103 11.7038 306.111C30.9543 307.525 85.178 325.078 105.168 359.717C105.257 359.879 105.283 360.072 105.241 360.254C105.199 360.436 105.092 360.593 104.944 360.693C104.836 360.744 104.718 360.768 104.6 360.763Z" fill="white"/>
<path d="M42.1189 344.651C42.0159 344.654 41.914 344.629 41.822 344.58C41.7299 344.531 41.6504 344.458 41.5904 344.369C41.4852 344.219 41.4401 344.03 41.4649 343.845C41.4897 343.659 41.5823 343.492 41.7225 343.38C42.4096 342.828 58.7929 329.967 74.7536 329.713C74.8397 329.711 74.9253 329.728 75.0054 329.762C75.0854 329.796 75.1584 329.846 75.2199 329.911C75.2814 329.975 75.3303 330.052 75.3636 330.137C75.397 330.222 75.4142 330.313 75.4142 330.406C75.4159 330.498 75.4006 330.591 75.369 330.677C75.3374 330.763 75.2902 330.842 75.2301 330.909C75.1699 330.976 75.0981 331.03 75.0186 331.067C74.9391 331.104 74.8535 331.124 74.7668 331.126C59.2686 331.367 42.7134 344.383 42.5417 344.51C42.4224 344.613 42.2714 344.663 42.1189 344.651Z" fill="white"/>
<path d="M103.372 372.776C103.513 374.831 104.104 376.822 105.098 378.587C106.092 380.352 107.46 381.843 109.093 382.937L269.399 481.938C271.172 482.901 273.132 483.402 275.12 483.402C277.108 483.402 279.068 482.901 280.841 481.938L500.167 346.474C501.896 345.498 503.343 344.036 504.352 342.246C505.361 340.455 505.895 338.404 505.895 336.313C505.895 334.222 505.361 332.171 504.352 330.38C503.343 328.589 501.896 327.127 500.167 326.151L339.874 227.221C338.101 226.259 336.141 225.757 334.153 225.757C332.165 225.757 330.205 226.259 328.432 227.221L109.093 362.643C107.464 363.734 106.098 365.22 105.104 366.98C104.11 368.74 103.517 370.726 103.372 372.776Z" fill="#37474F"/>
<path d="M169.513 325.303L109.093 362.642C107.364 363.618 105.917 365.08 104.908 366.871C103.898 368.661 103.365 370.713 103.365 372.804C103.365 374.895 103.898 376.946 104.908 378.737C105.917 380.527 107.364 381.989 109.093 382.965L269.399 481.966C271.162 482.951 273.132 483.438 275.12 483.38V325.303H169.513Z" fill="#263238"/>
<path d="M97.9941 362.84C96.4018 361.679 95.0868 360.134 94.155 358.33C93.2233 356.526 92.7008 354.513 92.6299 352.453V147.822C92.7363 145.698 93.3098 143.632 94.304 141.79C95.2981 139.948 96.6846 138.383 98.3509 137.222L317.677 1.75851C319.333 0.647725 321.24 0.0404573 323.194 0.00195231C325.148 -0.0365527 327.074 0.495155 328.767 1.53995C330.46 2.58475 331.854 4.10316 332.801 5.932C333.747 7.76085 334.21 9.83101 334.14 11.9201V216.565C334.031 218.688 333.457 220.754 332.463 222.595C331.469 224.437 330.083 226.002 328.419 227.164L109.093 362.642C107.387 363.605 105.493 364.124 103.565 364.158C101.637 364.193 99.7288 363.741 97.9941 362.84Z" fill="#455A64"/>
<path d="M119.478 157.334L94.3079 141.787C93.3056 143.622 92.7554 145.698 92.7092 147.822V352.453C92.7802 354.512 93.3026 356.526 94.2344 358.33C95.1661 360.134 96.4812 361.679 98.0735 362.84C99.8085 363.734 101.716 364.18 103.641 364.141C105.567 364.101 107.457 363.578 109.159 362.614L134.183 347.167L119.478 157.334Z" fill="#263238"/>
<path d="M103.372 154.464V359.081C103.372 362.981 105.935 364.564 109.093 362.614L328.419 227.164C330.084 226.002 331.469 224.437 332.463 222.595C333.457 220.754 334.031 218.688 334.14 216.564V11.9339C334.14 8.03323 331.577 6.45034 328.419 8.40068L109.093 143.865C107.426 145.025 106.04 146.59 105.046 148.432C104.052 150.274 103.478 152.341 103.372 154.464Z" fill="#37474F"/>
<path d="M109.093 369.708L269.399 468.639C271.172 469.601 273.132 470.102 275.12 470.102C277.108 470.102 279.068 469.601 280.841 468.639L500.167 333.175C503.338 331.224 503.338 328.059 500.167 326.108L339.874 227.178C338.101 226.216 336.141 225.714 334.153 225.714C332.165 225.714 330.205 226.216 328.432 227.178L109.093 362.642C105.922 364.564 105.922 367.73 109.093 369.708Z" fill="#455A64"/>
<path d="M112.171 155.214L325.354 23.5655C327.243 22.3925 328.789 23.3394 328.789 25.6855V202.813C328.722 204.087 328.377 205.326 327.78 206.431C327.183 207.536 326.352 208.475 325.354 209.173L112.171 340.821C110.269 341.994 108.736 341.047 108.736 338.701V161.573C108.799 160.299 109.144 159.058 109.741 157.953C110.338 156.848 111.171 155.909 112.171 155.214Z" fill="white"/>
<path d="M127.696 364.381L331.286 238.598C332.172 238.117 333.152 237.867 334.146 237.867C335.14 237.867 336.12 238.117 337.007 238.598L347.431 245.028C347.777 245.153 348.076 245.391 348.289 245.708C348.501 246.025 348.615 246.405 348.615 246.795C348.615 247.185 348.501 247.565 348.289 247.881C348.076 248.198 347.777 248.436 347.431 248.561L143.802 374.33C142.915 374.811 141.935 375.061 140.941 375.061C139.947 375.061 138.967 374.811 138.081 374.33L127.696 367.914C127.351 367.789 127.051 367.551 126.839 367.234C126.626 366.917 126.512 366.537 126.512 366.147C126.512 365.757 126.626 365.377 126.839 365.06C127.051 364.744 127.351 364.506 127.696 364.381Z" fill="#263238"/>
<path d="M154.543 381.015L358.12 255.232C359.009 254.751 359.991 254.501 360.987 254.501C361.983 254.501 362.965 254.751 363.854 255.232L427.895 294.804C428.24 294.929 428.54 295.167 428.752 295.484C428.964 295.801 429.079 296.181 429.079 296.571C429.079 296.96 428.964 297.34 428.752 297.657C428.54 297.974 428.24 298.212 427.895 298.337L224.543 423.866C223.654 424.346 222.672 424.597 221.676 424.597C220.68 424.597 219.697 424.346 218.808 423.866L154.543 384.477C154.215 384.344 153.932 384.107 153.732 383.798C153.533 383.489 153.426 383.122 153.426 382.746C153.426 382.37 153.533 382.003 153.732 381.694C153.932 381.385 154.215 381.148 154.543 381.015Z" fill="#263238"/>
<path d="M337.033 311.764L343.415 307.821C343.679 307.651 343.666 307.383 343.415 307.199L336.042 302.648C335.885 302.561 335.711 302.516 335.534 302.516C335.357 302.516 335.182 302.561 335.025 302.648L328.656 306.591C328.379 306.761 328.392 307.029 328.656 307.213L336.029 311.764C336.185 311.848 336.357 311.892 336.531 311.892C336.706 311.892 336.878 311.848 337.033 311.764ZM324.455 296.218L318.087 300.161C317.809 300.316 317.822 300.599 318.087 300.783L325.459 305.333C325.616 305.42 325.791 305.465 325.968 305.465C326.145 305.465 326.319 305.42 326.476 305.333L332.858 301.39C333.122 301.221 333.109 300.938 332.858 300.768L325.472 296.218C325.315 296.131 325.141 296.086 324.964 296.086C324.787 296.086 324.612 296.131 324.455 296.218ZM303.87 308.937L293.075 315.594C292.811 315.763 292.824 316.046 293.075 316.23L300.448 320.781C300.605 320.867 300.78 320.913 300.957 320.913C301.134 320.913 301.308 320.867 301.465 320.781L312.247 314.124C312.524 313.954 312.498 313.672 312.247 313.502L304.874 308.937C304.719 308.851 304.547 308.805 304.372 308.805C304.197 308.805 304.025 308.851 303.87 308.937ZM315.14 301.97L308.772 305.913C308.494 306.082 308.508 306.365 308.772 306.535L316.144 311.085C316.302 311.172 316.476 311.217 316.653 311.217C316.83 311.217 317.004 311.172 317.162 311.085L323.543 307.142C323.808 306.973 323.794 306.704 323.543 306.521L316.158 301.871C316 301.784 315.826 301.739 315.649 301.739C315.472 301.739 315.297 301.784 315.14 301.871V301.97ZM290.129 317.417L283.761 321.346C283.483 321.516 283.51 321.798 283.761 321.982L291.133 326.533C291.289 326.616 291.461 326.659 291.635 326.659C291.81 326.659 291.981 326.616 292.137 326.533L298.519 322.59C298.783 322.42 298.77 322.137 298.519 321.968L291.146 317.417C290.989 317.33 290.815 317.285 290.638 317.285C290.461 317.285 290.286 317.33 290.129 317.417ZM280.88 323.169L274.512 327.112C274.235 327.268 274.261 327.55 274.512 327.734L281.885 332.285C282.042 332.372 282.216 332.417 282.393 332.417C282.57 332.417 282.745 332.372 282.902 332.285L289.283 328.342C289.548 328.172 289.535 327.889 289.283 327.72L281.832 323.07C281.674 322.983 281.5 322.938 281.323 322.938C281.146 322.938 280.972 322.983 280.814 323.07L280.88 323.169ZM309.882 341.683L316.25 337.74C316.527 337.571 316.501 337.302 316.25 337.118L308.877 332.567C308.723 332.481 308.55 332.436 308.375 332.436C308.201 332.436 308.028 332.481 307.873 332.567L301.492 336.511C301.227 336.68 301.241 336.949 301.492 337.132L308.864 341.683C309.018 341.748 309.183 341.775 309.347 341.763C309.512 341.75 309.672 341.699 309.816 341.613L309.882 341.683ZM300.554 347.435L306.935 343.492C307.2 343.337 307.186 343.054 306.935 342.87L299.563 338.32C299.405 338.233 299.231 338.188 299.054 338.188C298.877 338.188 298.703 338.233 298.545 338.32L292.177 342.263C291.9 342.432 291.926 342.715 292.177 342.884L299.549 347.435C299.701 347.5 299.864 347.527 300.026 347.515C300.189 347.502 300.346 347.451 300.488 347.365L300.554 347.435ZM291.239 353.187L297.62 349.258C297.885 349.089 297.872 348.806 297.62 348.622L290.248 344.072C290.09 343.988 289.916 343.945 289.739 343.945C289.563 343.945 289.389 343.988 289.231 344.072L282.862 348.015C282.585 348.184 282.611 348.467 282.862 348.637L290.222 353.187C290.375 353.252 290.54 353.279 290.705 353.267C290.869 353.255 291.029 353.203 291.173 353.117L291.239 353.187ZM281.99 358.939L288.372 355.011C288.636 354.841 288.623 354.558 288.372 354.375L280.999 349.824C280.842 349.737 280.668 349.692 280.491 349.692C280.314 349.692 280.139 349.737 279.982 349.824L273.614 353.753C273.336 353.922 273.349 354.205 273.614 354.389L280.986 358.939C281.274 359.04 281.587 359.014 281.858 358.869L281.99 358.939ZM327.851 317.615L334.232 313.672C334.496 313.516 334.483 313.234 334.232 313.05L326.86 308.499C326.701 308.416 326.527 308.372 326.351 308.372C326.174 308.372 326 308.416 325.842 308.499L319.474 312.442C319.196 312.612 319.21 312.894 319.474 313.064L326.846 317.615C326.989 317.667 327.139 317.687 327.289 317.675C327.439 317.663 327.585 317.619 327.718 317.544L327.851 317.615ZM319.262 335.988L333.479 327.197C333.743 327.042 333.73 326.759 333.479 326.575L315.576 315.523C315.419 315.436 315.244 315.391 315.068 315.391C314.891 315.391 314.716 315.436 314.559 315.523L307.213 320.074C306.935 320.229 306.962 320.512 307.213 320.696L316.699 326.547C316.99 326.731 317.003 327.013 316.699 327.183L310.714 330.66C310.45 330.815 310.463 331.098 310.714 331.281L318.113 335.79C318.265 335.888 318.437 335.945 318.614 335.957C318.791 335.97 318.968 335.936 319.13 335.86L319.262 335.988ZM271.632 328.921L265.263 332.864C264.986 333.034 264.999 333.302 265.263 333.486L272.636 338.037C272.793 338.124 272.968 338.169 273.145 338.169C273.321 338.169 273.496 338.124 273.653 338.037L280.035 334.094C280.299 333.924 280.286 333.656 280.035 333.472L272.662 328.921C272.494 328.795 272.296 328.722 272.09 328.71C271.885 328.697 271.68 328.746 271.5 328.851L271.632 328.921ZM262.383 334.673L255.803 338.616C255.539 338.786 255.552 339.069 255.803 339.238L263.176 343.789C263.333 343.876 263.507 343.921 263.684 343.921C263.861 343.921 264.036 343.876 264.193 343.789L270.575 339.846C270.839 339.69 270.826 339.408 270.575 339.224L263.149 334.631C263.001 334.549 262.837 334.504 262.67 334.499C262.503 334.494 262.337 334.529 262.185 334.603L262.383 334.673ZM215.585 399.119C215.742 399.206 215.916 399.251 216.093 399.251C216.27 399.251 216.445 399.206 216.602 399.119L222.984 395.176C223.248 395.021 223.235 394.738 222.984 394.554L215.585 390.032C215.427 389.945 215.253 389.9 215.076 389.9C214.899 389.9 214.725 389.945 214.567 390.032L208.199 393.975C207.921 394.145 207.935 394.427 208.199 394.597L215.585 399.119ZM187.614 380.634L181.232 384.577C180.968 384.746 180.981 385.015 181.232 385.198L188.605 389.749C188.762 389.836 188.937 389.881 189.114 389.881C189.291 389.881 189.465 389.836 189.622 389.749L196.004 385.806C196.268 385.637 196.255 385.368 196.004 385.184L188.631 380.634C188.479 380.554 188.312 380.512 188.142 380.512C187.973 380.512 187.806 380.554 187.654 380.634H187.614ZM202.61 394.13C202.767 394.217 202.942 394.262 203.119 394.262C203.296 394.262 203.47 394.217 203.627 394.13L209.996 390.187C210.273 390.032 210.247 389.749 209.996 389.565L202.636 385.015C202.479 384.928 202.305 384.883 202.128 384.883C201.951 384.883 201.776 384.928 201.619 385.015L195.238 388.958C194.973 389.127 194.986 389.41 195.238 389.58L202.61 394.13ZM232.034 402.61L238.416 398.667C238.68 398.497 238.667 398.229 238.416 398.045L231.043 393.494C230.886 393.408 230.711 393.362 230.534 393.362C230.357 393.362 230.183 393.408 230.026 393.494L223.657 397.438C223.38 397.593 223.406 397.876 223.657 398.059L231.017 402.61C231.178 402.706 231.359 402.758 231.544 402.76C231.728 402.763 231.91 402.716 232.074 402.624L232.034 402.61ZM221.702 408.263C221.859 408.35 222.034 408.395 222.211 408.395C222.388 408.395 222.562 408.35 222.719 408.263L229.101 404.32C229.365 404.165 229.352 403.882 229.101 403.698L221.728 399.148C221.571 399.061 221.397 399.016 221.22 399.016C221.043 399.016 220.868 399.061 220.711 399.148L214.343 403.091C214.065 403.26 214.078 403.543 214.343 403.713L221.702 408.263ZM196.929 374.797L190.56 378.74C190.283 378.895 190.296 379.178 190.56 379.362L197.933 383.912C198.09 383.999 198.265 384.044 198.442 384.044C198.618 384.044 198.793 383.999 198.95 383.912L205.332 379.969C205.596 379.8 205.583 379.517 205.332 379.347L197.959 374.797C197.799 374.727 197.626 374.699 197.454 374.714C197.282 374.728 197.116 374.786 196.968 374.881L196.929 374.797ZM243.516 346.036L237.134 349.965C236.87 350.135 236.883 350.417 237.134 350.587L244.507 355.152C244.665 355.235 244.839 355.279 245.015 355.279C245.192 355.279 245.366 355.235 245.524 355.152L251.892 351.223C252.17 351.053 252.157 350.771 251.892 350.587L244.52 346.036C244.363 345.971 244.196 345.945 244.028 345.96C243.861 345.975 243.7 346.03 243.555 346.121L243.516 346.036ZM206.336 369.129L199.968 373.058C199.69 373.228 199.703 373.511 199.968 373.694L207.34 378.245C207.498 378.329 207.672 378.372 207.849 378.372C208.025 378.372 208.199 378.329 208.357 378.245L214.739 374.302C215.003 374.132 214.99 373.85 214.739 373.68L207.366 369.115C207.206 369.032 207.029 368.989 206.85 368.992C206.671 368.994 206.495 369.041 206.336 369.129ZM252.923 340.355L246.488 344.27C246.224 344.439 246.237 344.722 246.488 344.891L253.861 349.442C254.018 349.529 254.193 349.574 254.37 349.574C254.547 349.574 254.721 349.529 254.878 349.442L261.247 345.513C261.524 345.344 261.511 345.061 261.247 344.877L253.901 340.383C253.743 340.293 253.567 340.243 253.388 340.238C253.21 340.233 253.032 340.273 252.87 340.355H252.923ZM234.293 351.873L227.912 355.802C227.648 355.972 227.661 356.254 227.912 356.438L235.284 360.989C235.443 361.072 235.617 361.116 235.793 361.116C235.969 361.116 236.143 361.072 236.302 360.989L242.67 357.06C242.948 356.89 242.921 356.608 242.67 356.424L235.311 351.873C235.146 351.78 234.962 351.732 234.776 351.732C234.589 351.732 234.406 351.78 234.241 351.873H234.293ZM224.965 357.625L218.597 361.554C218.32 361.724 218.346 362.006 218.597 362.19L225.97 366.741C226.128 366.824 226.302 366.868 226.478 366.868C226.655 366.868 226.829 366.824 226.987 366.741L233.355 362.812C233.62 362.642 233.606 362.36 233.355 362.176L225.983 357.625C225.818 357.532 225.634 357.484 225.448 357.484C225.261 357.484 225.078 357.532 224.913 357.625H224.965ZM215.585 363.377L209.216 367.306C208.939 367.476 208.965 367.758 209.216 367.942L216.576 372.493C216.733 372.58 216.907 372.625 217.084 372.625C217.261 372.625 217.436 372.58 217.593 372.493L223.975 368.564C224.239 368.394 224.226 368.112 223.975 367.928L216.602 363.377C216.444 363.294 216.27 363.25 216.093 363.25C215.917 363.25 215.743 363.294 215.585 363.377ZM263.215 370.444L269.584 366.515C269.861 366.345 269.848 366.062 269.584 365.879L262.198 361.229C262.04 361.146 261.866 361.102 261.689 361.102C261.513 361.102 261.339 361.146 261.181 361.229L254.799 365.158C254.535 365.328 254.548 365.61 254.799 365.794L262.172 370.345C262.332 370.443 262.512 370.497 262.697 370.502C262.881 370.507 263.064 370.463 263.229 370.373L263.215 370.444ZM345.066 283.498L338.685 287.441C338.42 287.611 338.434 287.879 338.685 288.063L346.057 292.614C346.215 292.701 346.389 292.746 346.566 292.746C346.743 292.746 346.917 292.701 347.075 292.614L353.443 288.671C353.72 288.501 353.707 288.233 353.443 288.049L346.07 283.498C345.915 283.414 345.743 283.37 345.568 283.37C345.394 283.37 345.222 283.414 345.066 283.498ZM333.783 290.466L327.415 294.409C327.137 294.564 327.163 294.847 327.415 295.03L334.774 299.581C334.932 299.665 335.106 299.708 335.283 299.708C335.459 299.708 335.633 299.665 335.791 299.581L342.173 295.638C342.437 295.469 342.424 295.186 342.173 295.016L334.8 290.466C334.647 290.365 334.473 290.306 334.293 290.294C334.114 290.282 333.934 290.316 333.77 290.395L333.783 290.466ZM354.381 277.746L348.013 281.689C347.735 281.844 347.748 282.127 348.013 282.311L355.385 286.862C355.542 286.948 355.717 286.994 355.894 286.994C356.071 286.994 356.245 286.948 356.403 286.862L362.784 282.919C363.048 282.749 363.035 282.466 362.784 282.297L355.412 277.746C355.25 277.633 355.064 277.568 354.872 277.555C354.68 277.543 354.488 277.584 354.315 277.675L354.381 277.746ZM306.156 330.942L312.537 326.999C312.802 326.83 312.788 326.547 312.537 326.377L305.165 321.826C305.007 321.74 304.833 321.694 304.656 321.694C304.479 321.694 304.305 321.74 304.147 321.826L297.779 325.77C297.502 325.925 297.515 326.208 297.779 326.391L305.152 330.942C305.311 331.014 305.483 331.044 305.655 331.032C305.827 331.02 305.994 330.965 306.143 330.872L306.156 330.942ZM364.713 272.022C364.556 271.935 364.381 271.89 364.204 271.89C364.027 271.89 363.853 271.935 363.696 272.022L357.327 275.965C357.05 276.121 357.063 276.403 357.327 276.587L364.7 281.138C364.858 281.221 365.032 281.265 365.209 281.265C365.385 281.265 365.559 281.221 365.717 281.138L372.099 277.195C372.363 277.025 372.35 276.742 372.099 276.573L364.713 272.022ZM272.543 364.621L278.925 360.692C279.189 360.522 279.176 360.24 278.925 360.056L271.513 355.576C271.355 355.489 271.181 355.444 271.004 355.444C270.827 355.444 270.653 355.489 270.495 355.576L264.127 359.505C263.85 359.674 263.863 359.957 264.127 360.141L271.5 364.692C271.666 364.769 271.848 364.803 272.029 364.791C272.211 364.778 272.387 364.72 272.543 364.621ZM386.791 294.069L393.173 290.126C393.437 289.971 393.424 289.688 393.173 289.504L385.761 284.911C385.603 284.825 385.429 284.779 385.252 284.779C385.075 284.779 384.9 284.825 384.743 284.911L378.375 288.854C378.097 289.024 378.111 289.307 378.375 289.476L385.747 294.027C385.905 294.125 386.082 294.18 386.264 294.188C386.446 294.195 386.627 294.155 386.791 294.069ZM366.972 293.32L373.354 289.377C373.618 289.208 373.605 288.939 373.354 288.755L365.982 284.205C365.824 284.118 365.65 284.073 365.473 284.073C365.296 284.073 365.121 284.118 364.964 284.205L358.596 288.148C358.318 288.317 358.332 288.586 358.596 288.77L365.968 293.32C366.115 293.411 366.28 293.465 366.449 293.477C366.619 293.49 366.789 293.46 366.946 293.391L366.972 293.32ZM375.257 278.453C375.099 278.366 374.925 278.321 374.748 278.321C374.571 278.321 374.397 278.366 374.239 278.453L367.871 282.396C367.593 282.551 367.607 282.834 367.871 283.017L375.243 287.568C375.401 287.655 375.575 287.7 375.752 287.7C375.929 287.7 376.104 287.655 376.261 287.568L382.642 283.625C382.907 283.456 382.893 283.173 382.642 283.003L375.257 278.453ZM377.225 277.237L395.115 288.289C395.272 288.376 395.447 288.421 395.624 288.421C395.801 288.421 395.975 288.376 396.132 288.289L402.514 284.346C402.778 284.176 402.765 283.908 402.514 283.724L384.611 272.672C384.454 272.585 384.279 272.54 384.102 272.54C383.925 272.54 383.751 272.585 383.594 272.672L377.225 276.615C376.882 276.771 376.908 277.053 377.199 277.237H377.225ZM355.61 289.957L349.228 293.9C348.964 294.069 348.977 294.352 349.228 294.522L356.601 299.072C356.758 299.159 356.932 299.205 357.109 299.205C357.286 299.205 357.461 299.159 357.618 299.072L363.986 295.129C364.264 294.974 364.251 294.691 363.986 294.508L356.614 289.957C356.464 289.872 356.298 289.826 356.128 289.821C355.959 289.816 355.79 289.853 355.636 289.928L355.61 289.957ZM285.492 333.26L279.083 337.203C278.819 337.373 278.832 337.655 279.083 337.825L286.456 342.376C286.613 342.462 286.788 342.508 286.965 342.508C287.142 342.508 287.316 342.462 287.473 342.376L293.842 338.433C294.119 338.277 294.106 337.994 293.842 337.811L286.469 333.26C286.316 333.171 286.145 333.122 285.97 333.117C285.796 333.112 285.623 333.152 285.465 333.232L285.492 333.26ZM376.485 299.821C376.643 299.908 376.817 299.954 376.994 299.954C377.171 299.954 377.345 299.908 377.503 299.821L383.884 295.878C384.149 295.723 384.135 295.44 383.884 295.257L376.512 290.706C376.354 290.622 376.18 290.579 376.003 290.579C375.827 290.579 375.653 290.622 375.494 290.706L369.126 294.649C368.849 294.818 368.862 295.101 369.126 295.271L376.485 299.821ZM294.806 327.508L288.438 331.451C288.16 331.621 288.174 331.889 288.438 332.073L295.81 336.624C295.968 336.71 296.142 336.756 296.319 336.756C296.496 336.756 296.67 336.71 296.828 336.624L303.209 332.681C303.474 332.511 303.46 332.242 303.209 332.059L295.837 327.508C295.677 327.41 295.496 327.355 295.312 327.35C295.127 327.346 294.944 327.39 294.78 327.48L294.806 327.508ZM224.965 393.396C225.123 393.482 225.297 393.528 225.474 393.528C225.651 393.528 225.825 393.482 225.983 393.396L232.364 389.452C232.629 389.283 232.615 389.014 232.364 388.831L224.992 384.28C224.835 384.193 224.66 384.148 224.483 384.148C224.306 384.148 224.132 384.193 223.975 384.28L217.606 388.223C217.329 388.392 217.355 388.661 217.606 388.845L224.965 393.396ZM210.96 379.263L204.579 383.206C204.314 383.375 204.328 383.644 204.579 383.828L211.951 388.378C212.108 388.465 212.283 388.51 212.46 388.51C212.637 388.51 212.811 388.465 212.969 388.378L219.337 384.435C219.614 384.266 219.601 383.997 219.337 383.813L211.964 379.263C211.805 379.173 211.629 379.127 211.449 379.127C211.27 379.127 211.093 379.173 210.934 379.263H210.96ZM235.311 387.643L241.679 383.7C241.943 383.531 241.93 383.248 241.679 383.078L234.307 378.528C234.149 378.441 233.975 378.396 233.798 378.396C233.621 378.396 233.447 378.441 233.289 378.528L226.855 382.428C226.591 382.584 226.604 382.867 226.855 383.05L234.227 387.601C234.386 387.702 234.566 387.758 234.751 387.766C234.935 387.773 235.119 387.731 235.284 387.643H235.311ZM244.626 381.891L250.994 377.948C251.271 377.779 251.245 377.496 250.994 377.326L243.635 372.776C243.477 372.689 243.303 372.644 243.126 372.644C242.949 372.644 242.775 372.689 242.617 372.776L236.236 376.705C235.971 376.874 235.985 377.157 236.236 377.341L243.608 381.891C243.77 381.979 243.949 382.025 244.13 382.025C244.311 382.025 244.49 381.979 244.652 381.891H244.626ZM253.874 376.125L260.243 372.196C260.52 372.027 260.507 371.744 260.243 371.574L252.87 367.009C252.712 366.926 252.538 366.882 252.361 366.882C252.185 366.882 252.011 366.926 251.853 367.009L245.471 370.938C245.207 371.108 245.22 371.391 245.471 371.574L252.844 376.125C253.006 376.219 253.188 376.268 253.372 376.268C253.557 376.268 253.738 376.219 253.901 376.125H253.874ZM220.209 373.511L213.827 377.454C213.563 377.609 213.576 377.892 213.827 378.075L221.2 382.626C221.357 382.713 221.532 382.758 221.709 382.758C221.886 382.758 222.06 382.713 222.217 382.626L228.599 378.683C228.863 378.514 228.85 378.231 228.599 378.061L221.226 373.511C221.074 373.431 220.907 373.389 220.737 373.389C220.568 373.389 220.401 373.431 220.249 373.511H220.209ZM229.524 367.758L223.155 371.687C222.878 371.857 222.891 372.14 223.155 372.323L230.528 376.874C230.686 376.958 230.86 377.001 231.037 377.001C231.213 377.001 231.387 376.958 231.545 376.874L238.046 372.959C238.31 372.79 238.297 372.507 238.046 372.337L230.673 367.787C230.507 367.678 230.317 367.618 230.122 367.613C229.927 367.608 229.734 367.658 229.563 367.758H229.524ZM266.796 344.75L260.507 348.679C260.243 348.849 260.256 349.131 260.507 349.315L267.879 353.866C268.038 353.949 268.212 353.993 268.388 353.993C268.564 353.993 268.739 353.949 268.897 353.866L275.265 349.937C275.543 349.767 275.516 349.485 275.265 349.301L267.906 344.75C267.742 344.654 267.558 344.603 267.371 344.603C267.184 344.603 266.999 344.654 266.836 344.75H266.796ZM257.468 350.502L251.1 354.431C250.835 354.601 250.849 354.883 251.1 355.067L258.472 359.618C258.63 359.701 258.804 359.745 258.981 359.745C259.157 359.745 259.331 359.701 259.489 359.618L265.858 355.689C266.135 355.519 266.109 355.237 265.858 355.053L258.485 350.502C258.332 350.425 258.165 350.385 257.996 350.385C257.827 350.385 257.661 350.425 257.508 350.502H257.468ZM276.111 338.984L269.756 342.927C269.491 343.096 269.504 343.379 269.756 343.549L277.128 348.114C277.286 348.197 277.46 348.241 277.637 348.241C277.813 348.241 277.987 348.197 278.145 348.114L284.514 344.171C284.791 344.015 284.778 343.732 284.514 343.549L277.141 338.998C276.988 338.917 276.819 338.873 276.647 338.871C276.476 338.868 276.306 338.907 276.15 338.984H276.111ZM238.838 362.006L232.47 365.935C232.193 366.105 232.206 366.388 232.47 366.571L239.843 371.122C240.001 371.206 240.175 371.249 240.351 371.249C240.528 371.249 240.702 371.206 240.86 371.122L247.242 367.179C247.506 367.009 247.493 366.727 247.242 366.557L239.869 361.992C239.713 361.915 239.544 361.877 239.372 361.879C239.201 361.882 239.032 361.925 238.878 362.006H238.838ZM248.153 356.254L241.785 360.183C241.507 360.353 241.534 360.635 241.785 360.819L249.157 365.37C249.312 365.457 249.485 365.502 249.659 365.502C249.834 365.502 250.007 365.457 250.162 365.37L256.543 361.441C256.807 361.271 256.794 360.989 256.543 360.805L249.171 356.254C249.018 356.177 248.851 356.137 248.682 356.137C248.513 356.137 248.346 356.177 248.193 356.254H248.153ZM241.362 396.872L247.73 392.929C247.995 392.76 247.981 392.477 247.73 392.307L240.358 387.756C240.201 387.67 240.026 387.624 239.849 387.624C239.672 387.624 239.498 387.67 239.341 387.756L232.972 391.7C232.695 391.855 232.721 392.138 232.972 392.321L240.345 396.872C240.507 396.966 240.689 397.015 240.873 397.015C241.058 397.015 241.239 396.966 241.402 396.872H241.362ZM186.729 390.908L179.356 386.357C179.199 386.271 179.024 386.225 178.848 386.225C178.671 386.225 178.496 386.271 178.339 386.357L171.984 390.329C171.719 390.498 171.733 390.767 171.984 390.951L179.356 395.501C179.513 395.588 179.688 395.633 179.865 395.633C180.042 395.633 180.216 395.588 180.374 395.501L186.742 391.558C187.033 391.431 187.019 391.148 186.729 390.908ZM200.681 395.289L193.308 390.739C193.153 390.655 192.981 390.612 192.806 390.612C192.632 390.612 192.46 390.655 192.304 390.739L182.554 396.83C182.289 396.999 182.303 397.282 182.554 397.452L189.926 402.002C190.083 402.089 190.258 402.135 190.435 402.135C190.612 402.135 190.786 402.089 190.943 402.002L200.747 395.954C201.051 395.812 200.972 395.53 200.681 395.346V395.289ZM175.419 382.103L168.02 377.609C167.863 377.522 167.688 377.477 167.511 377.477C167.334 377.477 167.16 377.522 167.003 377.609L159.181 382.428C158.917 382.598 158.93 382.881 159.181 383.064L166.553 387.615C166.711 387.702 166.885 387.747 167.062 387.747C167.239 387.747 167.413 387.702 167.571 387.615L175.406 382.782C175.723 382.626 175.71 382.344 175.419 382.16V382.103ZM181.431 378.386C181.588 378.473 181.762 378.518 181.939 378.518C182.116 378.518 182.291 378.473 182.448 378.386L188.816 374.443C189.094 374.288 189.081 374.005 188.816 373.821L181.444 369.271C181.286 369.184 181.112 369.139 180.935 369.139C180.758 369.139 180.584 369.184 180.426 369.271L174.045 373.214C173.781 373.383 173.794 373.666 174.045 373.836L181.431 378.386ZM213.669 400.278L206.336 395.784C206.178 395.701 206.004 395.657 205.827 395.657C205.651 395.657 205.477 395.701 205.319 395.784L193.057 403.359C192.793 403.529 192.806 403.811 193.057 403.981L200.43 408.546C200.588 408.63 200.762 408.673 200.939 408.673C201.115 408.673 201.289 408.63 201.447 408.546L213.708 400.971C213.973 400.801 213.959 400.519 213.669 400.335V400.278ZM219.786 409.507L212.414 405.041C212.256 404.954 212.082 404.909 211.905 404.909C211.728 404.909 211.554 404.954 211.396 405.041L203.548 409.889C203.284 410.058 203.297 410.341 203.548 410.525L210.921 415.075C211.079 415.159 211.253 415.202 211.429 415.202C211.606 415.202 211.78 415.159 211.938 415.075L219.786 410.228C220.09 410.03 220.077 409.747 219.786 409.564V409.507ZM250.703 335.606C250.861 335.693 251.035 335.738 251.212 335.738C251.389 335.738 251.563 335.693 251.721 335.606L258.089 331.677C258.366 331.507 258.34 331.225 258.089 331.041L250.716 326.49C250.558 326.407 250.384 326.363 250.208 326.363C250.031 326.363 249.857 326.407 249.699 326.49L243.331 330.49C243.066 330.66 243.08 330.942 243.331 331.112L250.703 335.606ZM232.061 347.124C232.219 347.208 232.393 347.251 232.569 347.251C232.746 347.251 232.92 347.208 233.078 347.124L239.459 343.195C239.724 343.026 239.711 342.743 239.459 342.559L232.087 338.009C231.929 337.925 231.755 337.882 231.578 337.882C231.402 337.882 231.228 337.925 231.07 338.009L224.701 341.938C224.424 342.107 224.45 342.39 224.701 342.574L232.061 347.124ZM190.745 372.691C190.903 372.778 191.077 372.823 191.254 372.823C191.431 372.823 191.605 372.778 191.763 372.691L198.131 368.748C198.408 368.578 198.395 368.31 198.131 368.126L190.758 363.575C190.601 363.488 190.427 363.443 190.25 363.443C190.073 363.443 189.898 363.488 189.741 363.575L183.36 367.518C183.095 367.688 183.109 367.956 183.36 368.14L190.745 372.691ZM241.388 341.443C241.544 341.526 241.716 341.57 241.891 341.57C242.065 341.57 242.237 341.526 242.393 341.443L248.774 337.514C249.038 337.344 249.025 337.062 248.774 336.878L241.402 332.327C241.244 332.24 241.07 332.195 240.893 332.195C240.716 332.195 240.542 332.24 240.384 332.327L234.016 336.256C233.738 336.426 233.765 336.708 234.016 336.892L241.388 341.443ZM222.746 352.947C222.903 353.034 223.077 353.079 223.254 353.079C223.431 353.079 223.606 353.034 223.763 352.947L230.145 349.018C230.409 348.849 230.396 348.566 230.145 348.382L222.772 343.831C222.614 343.748 222.44 343.704 222.263 343.704C222.087 343.704 221.913 343.748 221.755 343.831L215.386 347.76C215.109 347.93 215.122 348.213 215.386 348.396L222.746 352.947ZM224.899 410.313C224.741 410.229 224.567 410.186 224.391 410.186C224.214 410.186 224.04 410.229 223.882 410.313L214.078 416.347C213.814 416.517 213.827 416.8 214.078 416.983L221.451 421.534C221.608 421.621 221.783 421.666 221.96 421.666C222.137 421.666 222.311 421.621 222.468 421.534L232.272 415.485C232.549 415.316 232.523 415.033 232.272 414.849L224.899 410.313ZM209.375 361.229C209.533 361.313 209.707 361.356 209.883 361.356C210.06 361.356 210.234 361.313 210.392 361.229L216.774 357.286C217.038 357.116 217.025 356.834 216.774 356.664L209.401 352.113C209.244 352.027 209.07 351.981 208.893 351.981C208.716 351.981 208.541 352.027 208.384 352.113L202.015 356.056C201.738 356.212 201.751 356.494 202.015 356.678L209.375 361.229ZM200.06 366.882C200.217 366.969 200.392 367.014 200.569 367.014C200.746 367.014 200.92 366.969 201.077 366.882L207.459 362.939C207.723 362.769 207.71 362.487 207.459 362.317L200.086 357.766C199.929 357.68 199.755 357.634 199.578 357.634C199.401 357.634 199.226 357.68 199.069 357.766L192.701 361.71C192.423 361.865 192.436 362.148 192.701 362.331L200.06 366.882ZM397.506 303.708C397.349 303.621 397.175 303.576 396.998 303.576C396.821 303.576 396.646 303.621 396.489 303.708L380.74 313.375C380.476 313.545 380.489 313.827 380.74 314.011L388.112 318.562C388.271 318.645 388.445 318.689 388.621 318.689C388.797 318.689 388.972 318.645 389.13 318.562L404.905 308.937C405.183 308.768 405.17 308.485 404.905 308.301L397.506 303.708ZM376.908 316.428C376.751 316.341 376.577 316.296 376.4 316.296C376.223 316.296 376.048 316.341 375.891 316.428L369.522 320.357C369.245 320.526 369.258 320.809 369.522 320.993L376.895 325.543C377.053 325.627 377.227 325.67 377.404 325.67C377.58 325.67 377.754 325.627 377.912 325.543L384.294 321.614C384.558 321.445 384.545 321.162 384.294 320.978L376.908 316.428ZM250.716 391.12L257.085 387.177C257.362 387.007 257.336 386.725 257.085 386.555L249.725 381.99C249.567 381.907 249.393 381.863 249.217 381.863C249.04 381.863 248.866 381.907 248.708 381.99L242.327 385.919C242.062 386.089 242.076 386.371 242.327 386.555L249.699 391.106C249.856 391.192 250.03 391.238 250.206 391.24C250.383 391.242 250.557 391.201 250.716 391.12ZM358.279 327.932C358.12 327.848 357.946 327.805 357.77 327.805C357.594 327.805 357.42 327.848 357.261 327.932L350.88 331.861C350.615 332.03 350.629 332.313 350.88 332.497L358.252 337.048C358.41 337.134 358.584 337.18 358.761 337.18C358.938 337.18 359.112 337.134 359.27 337.048L365.638 333.119C365.915 332.949 365.902 332.666 365.638 332.483L358.279 327.932ZM406.821 297.956C406.663 297.872 406.489 297.829 406.312 297.829C406.136 297.829 405.962 297.872 405.804 297.956L399.435 301.871C399.158 302.04 399.171 302.323 399.435 302.493L406.808 307.058C406.966 307.141 407.14 307.185 407.317 307.185C407.493 307.185 407.667 307.141 407.825 307.058L414.207 303.129C414.471 302.959 414.458 302.676 414.207 302.493L406.821 297.956ZM423.508 296.755L405.606 285.703C405.448 285.616 405.274 285.571 405.097 285.571C404.92 285.571 404.745 285.616 404.588 285.703L398.22 289.646C397.942 289.815 397.956 290.098 398.22 290.268L416.123 301.32C416.28 301.406 416.454 301.452 416.631 301.452C416.808 301.452 416.983 301.406 417.14 301.32L423.522 297.377C423.812 297.221 423.799 296.938 423.508 296.755ZM323.464 349.442C323.307 349.355 323.132 349.31 322.955 349.31C322.778 349.31 322.604 349.355 322.447 349.442L314.598 354.29C314.334 354.459 314.347 354.742 314.598 354.912L321.971 359.462C322.128 359.549 322.303 359.594 322.48 359.594C322.657 359.594 322.831 359.549 322.988 359.462L330.837 354.615C331.101 354.445 331.088 354.163 330.837 353.993L323.464 349.442ZM346.995 334.899C346.838 334.813 346.664 334.767 346.487 334.767C346.31 334.767 346.135 334.813 345.978 334.899L336.174 340.948C335.91 341.118 335.923 341.401 336.174 341.57L343.547 346.135C343.705 346.219 343.879 346.262 344.056 346.262C344.232 346.262 344.406 346.219 344.564 346.135L354.368 340.086C354.632 339.917 354.619 339.634 354.368 339.45L346.995 334.899ZM301.888 362.755C301.73 362.672 301.556 362.628 301.379 362.628C301.203 362.628 301.029 362.672 300.871 362.755L248.404 395.148C248.14 395.318 248.153 395.6 248.404 395.784L255.777 400.335C255.935 400.418 256.109 400.462 256.285 400.462C256.462 400.462 256.636 400.418 256.794 400.335L309.261 367.928C309.525 367.758 309.512 367.476 309.261 367.292L301.888 362.755ZM246.475 396.985C246.318 396.898 246.144 396.853 245.967 396.853C245.79 396.853 245.615 396.898 245.458 396.985L237.623 401.833C237.345 402.002 237.359 402.285 237.623 402.455L244.995 407.006C245.153 407.092 245.327 407.138 245.504 407.138C245.681 407.138 245.856 407.092 246.013 407.006L253.901 402.214C254.165 402.045 254.152 401.762 253.901 401.593L246.475 396.985ZM312.669 356.099C312.511 356.015 312.337 355.972 312.161 355.972C311.984 355.972 311.81 356.015 311.652 356.099L303.817 360.946C303.54 361.116 303.553 361.399 303.817 361.582L311.19 366.133C311.348 366.217 311.522 366.26 311.698 366.26C311.875 366.26 312.049 366.217 312.207 366.133L320.055 361.286C320.333 361.13 320.306 360.847 320.055 360.664L312.669 356.099ZM235.694 403.628C235.536 403.544 235.362 403.501 235.185 403.501C235.009 403.501 234.835 403.544 234.677 403.628L226.828 408.475C226.564 408.645 226.577 408.928 226.828 409.111L234.201 413.662C234.359 413.746 234.533 413.789 234.71 413.789C234.886 413.789 235.06 413.746 235.218 413.662L243.053 408.829C243.331 408.659 243.317 408.376 243.053 408.193L235.694 403.628ZM334.245 342.757C334.087 342.674 333.913 342.63 333.737 342.63C333.56 342.63 333.386 342.674 333.228 342.757L325.393 347.591C325.116 347.76 325.129 348.043 325.393 348.227L332.766 352.778C332.924 352.861 333.098 352.904 333.274 352.904C333.451 352.904 333.625 352.861 333.783 352.778L341.631 347.93C341.909 347.76 341.882 347.478 341.631 347.294L334.245 342.757ZM367.593 322.166C367.436 322.079 367.262 322.034 367.085 322.034C366.908 322.034 366.733 322.079 366.576 322.166L360.208 326.095C359.93 326.264 359.943 326.547 360.208 326.731L367.58 331.281C367.738 331.365 367.912 331.408 368.089 331.408C368.265 331.408 368.439 331.365 368.598 331.281L374.979 327.352C375.243 327.183 375.23 326.9 374.979 326.716L367.593 322.166ZM388.007 306.309L394.375 302.38C394.652 302.21 394.639 301.927 394.375 301.744L387.002 297.193C386.844 297.109 386.67 297.066 386.494 297.066C386.317 297.066 386.143 297.109 385.985 297.193L379.604 301.136C379.339 301.305 379.353 301.588 379.604 301.758L386.976 306.323C387.136 306.408 387.312 306.453 387.491 306.453C387.67 306.453 387.847 306.408 388.007 306.323V306.309ZM346.388 306.111L352.769 302.168C353.033 301.998 353.02 301.715 352.769 301.546L345.397 296.995C345.239 296.908 345.065 296.863 344.888 296.863C344.711 296.863 344.537 296.908 344.379 296.995L338.011 300.938C337.733 301.108 337.76 301.376 338.011 301.56L345.37 306.111C345.527 306.197 345.702 306.243 345.879 306.243C346.056 306.243 346.23 306.197 346.388 306.111ZM325.248 345.16L343.877 333.656C344.141 333.486 344.128 333.203 343.877 333.02L336.505 328.469C336.346 328.385 336.172 328.342 335.996 328.342C335.82 328.342 335.645 328.385 335.487 328.469L316.858 339.987C316.594 340.143 316.607 340.425 316.858 340.609L324.23 345.16C324.393 345.236 324.57 345.269 324.747 345.257C324.924 345.245 325.096 345.187 325.248 345.089V345.16ZM377.675 312.131C377.833 312.215 378.007 312.258 378.183 312.258C378.36 312.258 378.534 312.215 378.692 312.131L385.06 308.202C385.338 308.033 385.325 307.75 385.06 307.566L377.688 303.016C377.53 302.929 377.356 302.884 377.179 302.884C377.002 302.884 376.828 302.929 376.67 303.016L370.289 306.944C370.025 307.114 370.038 307.397 370.289 307.58L377.675 312.131ZM368.162 305.644L374.53 301.715C374.807 301.546 374.794 301.263 374.53 301.079L367.157 296.529C366.999 296.445 366.825 296.402 366.649 296.402C366.472 296.402 366.298 296.445 366.14 296.529L359.758 300.472C359.494 300.641 359.507 300.924 359.758 301.093L367.131 305.658C367.297 305.731 367.477 305.762 367.656 305.747C367.835 305.732 368.008 305.673 368.162 305.574V305.644ZM315.933 350.87L322.301 346.927C322.579 346.757 322.552 346.488 322.301 346.305L314.929 341.754C314.771 341.667 314.597 341.622 314.42 341.622C314.243 341.622 314.069 341.667 313.911 341.754L307.503 345.683C307.226 345.852 307.252 346.121 307.503 346.305L314.876 350.855C315.047 350.96 315.242 351.014 315.439 351.012C315.637 351.009 315.83 350.95 315.999 350.841L315.933 350.87ZM357.076 324.809C357.235 324.892 357.409 324.935 357.585 324.935C357.761 324.935 357.936 324.892 358.094 324.809L364.475 320.88C364.74 320.71 364.726 320.427 364.475 320.244L357.103 315.693C356.945 315.609 356.771 315.566 356.594 315.566C356.418 315.566 356.244 315.609 356.085 315.693L349.717 319.636C349.44 319.805 349.453 320.088 349.717 320.258L357.076 324.809ZM269.346 379.602L275.714 375.673C275.992 375.503 275.979 375.221 275.714 375.037L268.342 370.486C268.184 370.403 268.01 370.359 267.833 370.359C267.657 370.359 267.483 370.403 267.324 370.486L260.943 374.415C260.679 374.585 260.692 374.867 260.943 375.051L268.315 379.602C268.475 379.688 268.652 379.732 268.831 379.732C269.01 379.732 269.186 379.688 269.346 379.602ZM278.661 373.85L285.042 369.921C285.307 369.751 285.293 369.469 285.042 369.285L277.683 364.734C277.526 364.647 277.351 364.602 277.174 364.602C276.997 364.602 276.823 364.647 276.666 364.734L270.284 368.663C270.02 368.833 270.033 369.115 270.284 369.299L277.657 373.85C277.813 373.931 277.985 373.973 278.159 373.973C278.333 373.973 278.504 373.931 278.661 373.85ZM260.031 385.354L266.4 381.425C266.677 381.255 266.664 380.973 266.4 380.789L259.04 376.238C258.882 376.155 258.708 376.111 258.532 376.111C258.355 376.111 258.181 376.155 258.023 376.238L251.641 380.167C251.377 380.337 251.39 380.619 251.641 380.803L259.014 385.354C259.171 385.441 259.346 385.486 259.523 385.486C259.699 385.486 259.874 385.441 260.031 385.354ZM297.29 362.346L303.672 358.417C303.936 358.247 303.923 357.964 303.672 357.781L296.299 353.23C296.141 353.146 295.967 353.103 295.791 353.103C295.614 353.103 295.44 353.146 295.282 353.23L288.914 357.173C288.636 357.342 288.649 357.625 288.914 357.795L296.286 362.346C296.442 362.43 296.614 362.474 296.788 362.474C296.963 362.474 297.135 362.43 297.29 362.346ZM288.042 368.098L294.423 364.169C294.687 363.999 294.674 363.716 294.423 363.533L286.932 358.982C286.774 358.895 286.6 358.85 286.423 358.85C286.246 358.85 286.072 358.895 285.914 358.982L279.546 362.911C279.268 363.08 279.282 363.363 279.546 363.533L286.918 368.098C287.082 368.188 287.263 368.235 287.447 368.235C287.631 368.235 287.812 368.188 287.975 368.098H288.042ZM306.671 356.593L313.053 352.65C313.317 352.495 313.304 352.212 313.053 352.028L305.68 347.478C305.523 347.391 305.348 347.346 305.171 347.346C304.994 347.346 304.82 347.391 304.663 347.478L298.189 351.336C297.911 351.506 297.938 351.788 298.189 351.958L305.548 356.509C305.704 356.616 305.882 356.68 306.066 356.695C306.251 356.71 306.436 356.675 306.605 356.593H306.671ZM349.294 271.471C349.452 271.558 349.626 271.603 349.803 271.603C349.98 271.603 350.154 271.558 350.312 271.471L356.693 267.528C356.957 267.372 356.944 267.09 356.693 266.906L354.738 265.691C354.58 265.607 354.406 265.564 354.229 265.564C354.053 265.564 353.879 265.607 353.72 265.691L347.339 269.619C347.075 269.789 347.088 270.072 347.339 270.255L349.294 271.471ZM303.46 303.129C303.618 303.215 303.792 303.261 303.969 303.261C304.146 303.261 304.32 303.215 304.478 303.129L310.846 299.2C311.124 299.03 311.11 298.747 310.846 298.564L303.474 294.013C303.315 293.929 303.141 293.886 302.965 293.886C302.789 293.886 302.614 293.929 302.456 294.013L296.075 297.942C295.81 298.111 295.824 298.394 296.075 298.578L303.46 303.129ZM322.09 291.624C322.248 291.708 322.422 291.751 322.599 291.751C322.775 291.751 322.949 291.708 323.107 291.624L329.489 287.695C329.753 287.526 329.74 287.243 329.489 287.059L322.116 282.509C321.959 282.422 321.785 282.377 321.608 282.377C321.431 282.377 321.256 282.422 321.099 282.509L314.678 286.438C314.4 286.607 314.413 286.89 314.678 287.074L322.09 291.624ZM292.085 310.153C292.243 310.236 292.417 310.28 292.593 310.28C292.77 310.28 292.944 310.236 293.102 310.153L299.47 306.21C299.748 306.04 299.734 305.757 299.47 305.588L292.098 301.023C291.94 300.939 291.765 300.896 291.589 300.896C291.413 300.896 291.239 300.939 291.08 301.023L284.699 304.952C284.435 305.121 284.448 305.404 284.699 305.588L292.085 310.153ZM312.775 297.433C312.933 297.517 313.107 297.56 313.284 297.56C313.46 297.56 313.634 297.517 313.792 297.433L320.174 293.504C320.438 293.334 320.425 293.052 320.174 292.868L312.802 288.317C312.643 288.234 312.469 288.19 312.293 288.19C312.116 288.19 311.942 288.234 311.784 288.317L305.416 292.246C305.138 292.416 305.152 292.699 305.416 292.882L312.775 297.433ZM273.389 321.657C273.546 321.744 273.721 321.789 273.898 321.789C274.075 321.789 274.249 321.744 274.406 321.657L280.775 317.714C281.052 317.544 281.026 317.262 280.775 317.092L273.415 312.541C273.258 312.454 273.084 312.409 272.907 312.409C272.73 312.409 272.555 312.454 272.398 312.541L266.016 316.484C265.752 316.64 265.765 316.922 266.016 317.106L273.389 321.657ZM282.704 315.905C282.862 315.988 283.036 316.032 283.212 316.032C283.389 316.032 283.563 315.988 283.721 315.905L290.089 311.962C290.367 311.792 290.354 311.509 290.089 311.34L282.73 306.789C282.573 306.702 282.398 306.657 282.221 306.657C282.044 306.657 281.87 306.702 281.713 306.789L275.331 310.732C275.067 310.888 275.08 311.17 275.331 311.354L282.704 315.905ZM330.599 282.989C330.757 283.073 330.931 283.116 331.107 283.116C331.284 283.116 331.458 283.073 331.616 282.989L337.998 279.06C338.262 278.891 338.249 278.608 337.998 278.424L336.029 277.209C335.871 277.125 335.697 277.082 335.52 277.082C335.344 277.082 335.17 277.125 335.012 277.209L328.643 281.138C328.366 281.307 328.392 281.59 328.643 281.774L330.599 282.989ZM358.556 265.719C358.711 265.805 358.883 265.851 359.058 265.851C359.233 265.851 359.405 265.805 359.56 265.719L365.942 261.776C366.206 261.606 366.193 261.338 365.942 261.154L363.986 259.938C363.829 259.852 363.655 259.806 363.478 259.806C363.301 259.806 363.126 259.852 362.969 259.938L356.588 263.867C356.323 264.037 356.336 264.32 356.588 264.503L358.556 265.719ZM374.028 275.287C374.186 275.37 374.36 275.414 374.537 275.414C374.713 275.414 374.887 275.37 375.045 275.287L381.427 271.344C381.691 271.174 381.678 270.891 381.427 270.722L374.054 266.157C373.896 266.073 373.722 266.03 373.546 266.03C373.369 266.03 373.195 266.073 373.037 266.157L366.669 270.086C366.391 270.255 366.418 270.538 366.669 270.722L374.028 275.287ZM397.321 300.571L403.703 296.627C403.967 296.472 403.954 296.189 403.703 296.006L396.33 291.455C396.172 291.371 395.998 291.328 395.822 291.328C395.645 291.328 395.471 291.371 395.313 291.455L388.945 295.398C388.667 295.568 388.68 295.85 388.945 296.02L396.317 300.571C396.473 300.655 396.645 300.699 396.819 300.699C396.994 300.699 397.166 300.655 397.321 300.571ZM339.913 277.237C340.072 277.321 340.246 277.364 340.422 277.364C340.599 277.364 340.773 277.321 340.931 277.237L347.312 273.308C347.577 273.139 347.563 272.856 347.312 272.672L345.344 271.457C345.186 271.373 345.012 271.33 344.835 271.33C344.659 271.33 344.485 271.373 344.326 271.457L337.958 275.386C337.694 275.555 337.707 275.838 337.958 276.022L339.913 277.237ZM264.074 327.409C264.231 327.496 264.406 327.541 264.583 327.541C264.76 327.541 264.934 327.496 265.092 327.409L271.46 323.466C271.724 323.296 271.711 323.028 271.46 322.844L264.087 318.293C263.93 318.206 263.756 318.161 263.579 318.161C263.402 318.161 263.227 318.206 263.07 318.293L256.702 322.236C256.437 322.406 256.451 322.674 256.702 322.858L264.074 327.409Z" fill="#455A64"/>
<path d="M301.954 389.353L371.716 346.262L414.656 372.776L344.881 415.867L301.954 389.353Z" fill="#263238"/>
<path d="M146.88 172.216L354.791 43.8181C358.847 41.3024 362.176 43.3658 362.176 48.383V220.621C362.11 221.895 361.764 223.134 361.167 224.239C360.571 225.343 359.74 226.283 358.741 226.981L145.559 358.643C143.669 359.802 142.124 358.855 142.124 356.523V181.02C142.218 179.257 142.698 177.543 143.524 176.014C144.35 174.485 145.499 173.184 146.88 172.216Z" fill="#F5F5F5"/>
<path d="M362.242 52.5097V48.3829C362.242 43.3657 358.913 41.3165 354.857 43.818L146.88 172.216C145.499 173.184 144.35 174.485 143.524 176.014C142.698 177.543 142.218 179.257 142.124 181.02V188.412L362.242 52.5097Z" fill="#F03E3D"/>
<path d="M331.22 61.9084C330.477 62.4251 329.86 63.1219 329.417 63.9421C328.973 64.7623 328.718 65.6828 328.67 66.6288C328.67 68.3671 329.806 69.0737 331.22 68.1975C331.959 67.6823 332.574 66.9874 333.015 66.1695C333.456 65.3517 333.71 64.434 333.756 63.4912C333.756 61.7529 332.62 61.0462 331.22 61.9084Z" fill="white"/>
<path d="M341.314 55.675C340.574 56.1933 339.959 56.8908 339.518 57.7109C339.078 58.531 338.824 59.4507 338.777 60.3954C338.777 62.1337 339.914 62.8263 341.314 61.9641C342.056 61.4474 342.674 60.7506 343.117 59.9304C343.56 59.1102 343.816 58.1897 343.864 57.2438C343.864 55.5054 342.728 54.7988 341.314 55.675Z" fill="white"/>
<path d="M351.421 49.4286C350.681 49.9478 350.065 50.6452 349.622 51.4649C349.18 52.2846 348.922 53.2039 348.871 54.149C348.871 55.8874 350.021 56.594 351.421 55.7178C352.163 55.2033 352.78 54.5089 353.223 53.6911C353.666 52.8733 353.922 51.9553 353.971 51.0115C353.971 49.2732 352.822 48.5665 351.421 49.4286Z" fill="white"/>
<path d="M193.463 272.738L185.374 267.742L165.562 304.449L173.651 309.445L193.463 272.738Z" fill="#37474F"/>
<path d="M193.479 272.727L189.44 270.233L169.628 306.939L173.667 309.434L193.479 272.727Z" fill="#263238"/>
<path d="M143.841 376.125C140.155 382.98 122.701 372.097 126.374 365.342L171.891 289.406C172.014 289.2 172.206 289.053 172.427 288.995C172.649 288.937 172.883 288.973 173.08 289.095L182.223 294.748C182.42 294.867 182.566 295.063 182.63 295.295C182.694 295.527 182.672 295.777 182.567 295.992L143.841 376.125Z" fill="#11B5E4"/>
<path opacity="0.1" d="M143.841 376.125L182.553 295.992C182.658 295.777 182.681 295.528 182.617 295.295C182.553 295.063 182.407 294.867 182.21 294.748L178.048 292.176L133.667 376.563C137.71 378.697 142.176 379.22 143.841 376.125Z" fill="black"/>
<path d="M277.683 197.358C277.683 196.778 277.683 196.213 277.604 195.648C277.524 195.082 277.604 194.531 277.485 193.98C277.366 193.429 277.485 193.245 277.379 192.878C277.287 191.917 277.154 190.97 277.009 190.051C276.943 189.641 276.877 189.217 276.798 188.807C276.718 188.398 276.652 188.03 276.573 187.649C276.348 186.603 276.111 185.585 275.833 184.61C275.688 184.144 275.556 183.677 275.41 183.197C275.382 183.128 275.36 183.057 275.344 182.985C275.186 182.532 275.04 182.094 274.882 181.67C274.723 181.246 274.512 180.681 274.3 180.257C274.089 179.833 274.01 179.565 273.838 179.225C273.742 178.971 273.627 178.725 273.495 178.49C273.362 178.194 273.217 177.897 273.059 177.614C272.9 177.332 272.992 177.473 272.953 177.416C272.913 177.36 272.675 176.908 272.53 176.653C272.385 176.399 272.332 176.328 272.239 176.173C271.562 175.032 270.802 173.95 269.967 172.936L269.544 172.427L269.187 172.032C269.042 171.862 268.883 171.707 268.725 171.537C268.31 171.071 267.869 170.632 267.404 170.223C267.179 170.011 266.941 169.813 266.703 169.629L265.977 169.064C265.599 168.768 265.206 168.494 264.801 168.244L264.484 168.032H264.418L245.696 156.471L245.59 156.401C241.998 154.258 237.943 153.161 233.831 153.221C227.7 153.221 220.777 155.369 213.444 159.892C188.261 175.438 167.835 213.286 167.835 244.406C167.835 259.953 172.908 270.835 181.113 275.951H181.193L199.928 287.498H200.007L200.232 287.625C200.583 287.847 200.945 288.05 201.315 288.233C201.764 288.473 202.227 288.685 202.636 288.883C203.046 289.08 203.469 289.236 203.892 289.377L204.565 289.589C204.801 289.686 205.044 289.762 205.292 289.815C205.535 289.895 205.782 289.961 206.032 290.013C206.21 290.069 206.391 290.112 206.574 290.14C206.891 290.211 207.234 290.282 207.565 290.324C207.639 290.338 207.715 290.338 207.789 290.324C208.186 290.4 208.582 290.456 208.978 290.494C215.769 291.257 223.671 289.208 232.126 283.993C257.323 268.446 277.749 230.584 277.749 199.478C277.683 198.828 277.683 198.093 277.683 197.358ZM247.123 175.353C248.112 179.22 248.597 183.215 248.563 187.225C248.563 214.671 229.788 249.409 207.604 263.175C204.361 265.237 200.86 266.793 197.206 267.796C196.222 263.923 195.738 259.924 195.766 255.911C195.766 228.464 214.541 193.726 236.724 179.96C239.955 177.906 243.443 176.355 247.083 175.353H247.123Z" fill="#11B5E4"/>
<path opacity="0.1" d="M199.161 287.102L180.968 275.881C172.763 270.75 167.689 259.84 167.689 244.35C167.689 230.472 171.759 215.265 178.484 201.301L197.219 212.834C190.481 226.797 186.425 242.004 186.425 255.883C186.425 271.09 191.26 281.845 199.161 287.102Z" fill="black"/>
<path opacity="0.4" d="M277.683 197.358C277.683 196.779 277.683 196.213 277.604 195.648C277.524 195.083 277.604 194.532 277.485 193.98C277.366 193.429 277.485 193.245 277.379 192.878C277.287 191.917 277.155 190.97 277.009 190.051C276.943 189.642 276.877 189.218 276.798 188.808C276.718 188.398 276.652 188.03 276.573 187.649C276.349 186.603 276.111 185.585 275.833 184.61C275.688 184.144 275.556 183.677 275.41 183.197C275.383 183.129 275.36 183.058 275.344 182.985C275.186 182.533 275.041 182.095 274.882 181.671C274.723 181.247 274.512 180.681 274.301 180.257C274.089 179.833 274.01 179.565 273.838 179.226C273.742 178.971 273.628 178.725 273.495 178.491C273.363 178.194 273.217 177.897 273.059 177.614C272.9 177.332 272.993 177.473 272.953 177.417C272.913 177.36 272.675 176.908 272.53 176.653C272.385 176.399 272.332 176.328 272.239 176.173C271.562 175.032 270.803 173.95 269.967 172.936L269.544 172.428L269.187 172.032C269.042 171.862 268.884 171.707 268.725 171.537C268.31 171.071 267.869 170.632 267.404 170.223C267.179 170.011 266.941 169.813 266.703 169.629L265.977 169.064C265.599 168.768 265.207 168.494 264.801 168.244C256.517 162.86 244.982 163.496 232.153 171.396C206.957 186.942 186.531 224.79 186.531 255.911C186.531 271.669 191.815 282.678 200.205 287.682C200.557 287.904 200.918 288.106 201.289 288.289C201.738 288.53 202.2 288.742 202.61 288.939C203.02 289.137 203.442 289.293 203.865 289.434L204.539 289.646C204.775 289.743 205.018 289.818 205.266 289.872C205.509 289.951 205.756 290.017 206.006 290.07C206.183 290.126 206.364 290.168 206.547 290.197C206.864 290.268 207.208 290.339 207.538 290.381C207.613 290.394 207.689 290.394 207.763 290.381C208.159 290.456 208.556 290.513 208.952 290.551C215.743 291.314 223.644 289.264 232.1 284.049C257.296 268.503 277.723 230.641 277.723 199.535C277.683 198.828 277.683 198.093 277.683 197.358ZM227.476 275.527C221.821 279.018 216.377 280.855 211.727 280.855C202.993 280.855 198.977 274.481 197.193 267.797C196.209 263.923 195.725 259.924 195.753 255.911C195.753 228.465 214.528 193.726 236.711 179.96C239.954 177.902 243.456 176.351 247.109 175.353C248.839 174.895 250.613 174.653 252.394 174.632C266.836 174.632 268.381 192.072 268.381 199.577C268.434 226.967 249.659 261.804 227.476 275.527Z" fill="white"/>
<path opacity="0.1" d="M268.434 199.577C268.434 227.023 249.673 261.761 227.476 275.527C221.821 279.018 216.377 280.855 211.727 280.855C202.993 280.855 198.977 274.481 197.193 267.796C200.847 266.793 204.348 265.237 207.591 263.175C229.814 249.452 248.55 214.671 248.55 187.225C248.584 183.215 248.099 179.22 247.109 175.353C248.839 174.894 250.613 174.653 252.394 174.632C266.875 174.674 268.434 192.072 268.434 199.577Z" fill="black"/>
<path opacity="0.7" d="M260.507 194.786C260.507 222.232 241.745 256.97 219.548 270.736C213.893 274.227 208.45 276.064 203.799 276.064C202.874 276.066 201.95 275.986 201.038 275.824C199.252 273.464 197.951 270.729 197.219 267.796C196.235 263.923 195.751 259.924 195.779 255.911C195.779 228.464 214.554 193.726 236.737 179.96C239.981 177.902 243.482 176.351 247.136 175.353C248.865 174.894 250.639 174.653 252.421 174.632C253.35 174.63 254.278 174.71 255.195 174.872C259.767 180.624 260.507 189.853 260.507 194.786Z" fill="white"/>
<path d="M292.441 166.195V197.486C292.441 199.832 293.987 200.779 295.877 199.606L487.589 81.2141C488.587 80.5162 489.418 79.5769 490.015 78.4722C490.612 77.3675 490.957 76.1282 491.024 74.8543V43.5216C491.024 41.1756 489.478 40.2287 487.589 41.4017L295.877 159.793C294.874 160.496 294.04 161.442 293.443 162.555C292.846 163.667 292.503 164.914 292.441 166.195Z" fill="#E6E6E6"/>
<path d="M295.876 159.793L330.017 138.72V178.49L295.876 199.563C293.987 200.736 292.441 199.789 292.441 197.443V166.195C292.503 164.914 292.846 163.667 293.443 162.554C294.04 161.442 294.874 160.496 295.876 159.793Z" fill="#BA68C8"/>
<path d="M318.721 156.076C316.567 154.748 313.845 154.96 311.058 156.684C308.408 158.5 306.204 160.968 304.63 163.881C303.055 166.795 302.156 170.07 302.007 173.432C301.914 175.61 302.556 177.752 303.817 179.466L300.144 186.194C299.905 186.675 299.847 187.236 299.982 187.761C300.117 188.287 300.435 188.737 300.871 189.02C301.174 189.202 301.514 189.299 301.862 189.303C302.21 189.303 302.552 189.205 302.853 189.019C303.155 188.833 303.405 188.565 303.579 188.243L307.213 181.516C307.605 181.594 308.003 181.637 308.402 181.643C310.024 181.611 311.61 181.124 313 180.23C315.644 178.41 317.844 175.941 319.416 173.027C320.988 170.114 321.887 166.842 322.037 163.482C322.077 160.048 320.888 157.419 318.721 156.076ZM311.058 176.569C310.593 177.103 309.974 177.453 309.3 177.562C308.625 177.67 307.937 177.531 307.346 177.167C306.756 176.802 306.298 176.235 306.048 175.556C305.799 174.878 305.771 174.129 305.971 173.432C306.125 170.817 306.843 168.275 308.07 166.007C309.296 163.739 310.997 161.806 313.039 160.359C313.832 159.819 314.743 159.512 315.682 159.468C316.069 159.453 316.453 159.55 316.792 159.751C317.289 160.206 317.671 160.787 317.902 161.442C318.133 162.097 318.205 162.803 318.113 163.496C317.96 166.11 317.244 168.65 316.02 170.919C314.796 173.187 313.097 175.121 311.058 176.569Z" fill="white"/>
</svg>
