<svg width="244" height="178" viewBox="0 0 244 178" fill="none" xmlns="http://www.w3.org/2000/svg">
<g filter="url(#filter0_d)">
<rect x="4" width="50" height="50" rx="19" fill="#4D8DFF"/>
<path d="M29.4821 24.6429L30.6518 25.1875L32.3929 24.6696V23.4554C32.3929 21.3929 30.6518 19.7411 28.5714 19.7411C26.5 19.7411 24.75 21.3839 24.75 23.4286V28.9643C24.75 29.4732 24.3393 29.875 23.8393 29.875C23.3393 29.875 22.9286 29.4732 22.9286 28.9643V26.625H20C20 28.9732 20 29 20 29C20 31.1161 21.7143 32.8304 23.8304 32.8304C25.9286 32.8304 27.6607 31.1429 27.6607 29.0536V23.5893C27.6607 23.0893 28.0714 22.6786 28.5714 22.6786C29.0714 22.6786 29.4821 23.0893 29.4821 23.5893V24.6429ZM34.2143 26.625V29.0804C34.2143 29.5804 33.8036 29.9821 33.3036 29.9821C32.8036 29.9821 32.3929 29.5804 32.3929 29.0804V26.6696L30.6518 27.1875L29.4821 26.6429V29.0357C29.4821 31.1339 31.2054 32.8304 33.3125 32.8304C35.4286 32.8304 37.1429 31.1161 37.1429 29C37.1429 29 37.1429 28.9732 37.1429 26.625H34.2143Z" fill="white"/>
</g>
<path d="M8.768 145.112C8.032 145.112 7.37067 144.984 6.784 144.728C6.208 144.461 5.75467 144.099 5.424 143.64C5.09333 143.171 4.92267 142.632 4.912 142.024H6.464C6.51733 142.547 6.73067 142.989 7.104 143.352C7.488 143.704 8.04267 143.88 8.768 143.88C9.46133 143.88 10.0053 143.709 10.4 143.368C10.8053 143.016 11.008 142.568 11.008 142.024C11.008 141.597 10.8907 141.251 10.656 140.984C10.4213 140.717 10.128 140.515 9.776 140.376C9.424 140.237 8.94933 140.088 8.352 139.928C7.616 139.736 7.024 139.544 6.576 139.352C6.13867 139.16 5.76 138.861 5.44 138.456C5.13067 138.04 4.976 137.485 4.976 136.792C4.976 136.184 5.13067 135.645 5.44 135.176C5.74933 134.707 6.18133 134.344 6.736 134.088C7.30133 133.832 7.94667 133.704 8.672 133.704C9.71733 133.704 10.5707 133.965 11.232 134.488C11.904 135.011 12.2827 135.704 12.368 136.568H10.768C10.7147 136.141 10.4907 135.768 10.096 135.448C9.70133 135.117 9.17867 134.952 8.528 134.952C7.92 134.952 7.424 135.112 7.04 135.432C6.656 135.741 6.464 136.179 6.464 136.744C6.464 137.149 6.576 137.48 6.8 137.736C7.03467 137.992 7.31733 138.189 7.648 138.328C7.98933 138.456 8.464 138.605 9.072 138.776C9.808 138.979 10.4 139.181 10.848 139.384C11.296 139.576 11.68 139.88 12 140.296C12.32 140.701 12.48 141.256 12.48 141.96C12.48 142.504 12.336 143.016 12.048 143.496C11.76 143.976 11.3333 144.365 10.768 144.664C10.2027 144.963 9.536 145.112 8.768 145.112ZM16.0786 137.848C16.3666 137.347 16.7933 136.931 17.3586 136.6C17.9346 136.259 18.6013 136.088 19.3586 136.088C20.1373 136.088 20.8413 136.275 21.4706 136.648C22.1106 137.021 22.612 137.549 22.9746 138.232C23.3373 138.904 23.5186 139.688 23.5186 140.584C23.5186 141.469 23.3373 142.259 22.9746 142.952C22.612 143.645 22.1106 144.184 21.4706 144.568C20.8413 144.952 20.1373 145.144 19.3586 145.144C18.612 145.144 17.9506 144.979 17.3746 144.648C16.8093 144.307 16.3773 143.885 16.0786 143.384V149.16H14.6226V136.232H16.0786V137.848ZM22.0306 140.584C22.0306 139.923 21.8973 139.347 21.6306 138.856C21.364 138.365 21.0013 137.992 20.5426 137.736C20.0946 137.48 19.5986 137.352 19.0546 137.352C18.5213 137.352 18.0253 137.485 17.5666 137.752C17.1186 138.008 16.756 138.387 16.4786 138.888C16.212 139.379 16.0786 139.949 16.0786 140.6C16.0786 141.261 16.212 141.843 16.4786 142.344C16.756 142.835 17.1186 143.213 17.5666 143.48C18.0253 143.736 18.5213 143.864 19.0546 143.864C19.5986 143.864 20.0946 143.736 20.5426 143.48C21.0013 143.213 21.364 142.835 21.6306 142.344C21.8973 141.843 22.0306 141.256 22.0306 140.584ZM29.2591 145.144C28.4378 145.144 27.6911 144.957 27.0191 144.584C26.3578 144.211 25.8351 143.683 25.4511 143C25.0778 142.307 24.8911 141.507 24.8911 140.6C24.8911 139.704 25.0831 138.915 25.4671 138.232C25.8618 137.539 26.3951 137.011 27.0671 136.648C27.7391 136.275 28.4911 136.088 29.3231 136.088C30.1551 136.088 30.9071 136.275 31.5791 136.648C32.2511 137.011 32.7791 137.533 33.1631 138.216C33.5578 138.899 33.7551 139.693 33.7551 140.6C33.7551 141.507 33.5525 142.307 33.1471 143C32.7525 143.683 32.2138 144.211 31.5311 144.584C30.8485 144.957 30.0911 145.144 29.2591 145.144ZM29.2591 143.864C29.7818 143.864 30.2725 143.741 30.7311 143.496C31.1898 143.251 31.5578 142.883 31.8351 142.392C32.1231 141.901 32.2671 141.304 32.2671 140.6C32.2671 139.896 32.1285 139.299 31.8511 138.808C31.5738 138.317 31.2111 137.955 30.7631 137.72C30.3151 137.475 29.8298 137.352 29.3071 137.352C28.7738 137.352 28.2831 137.475 27.8351 137.72C27.3978 137.955 27.0458 138.317 26.7791 138.808C26.5125 139.299 26.3791 139.896 26.3791 140.6C26.3791 141.315 26.5071 141.917 26.7631 142.408C27.0298 142.899 27.3818 143.267 27.8191 143.512C28.2565 143.747 28.7365 143.864 29.2591 143.864ZM37.1255 137.656C37.3815 137.155 37.7442 136.765 38.2135 136.488C38.6935 136.211 39.2748 136.072 39.9575 136.072V137.576H39.5735C37.9415 137.576 37.1255 138.461 37.1255 140.232V145H35.6695V136.232H37.1255V137.656ZM43.4143 137.432V142.6C43.4143 143.027 43.5049 143.331 43.6863 143.512C43.8676 143.683 44.1823 143.768 44.6302 143.768H45.7023V145H44.3903C43.5796 145 42.9716 144.813 42.5663 144.44C42.1609 144.067 41.9583 143.453 41.9583 142.6V137.432H40.8223V136.232H41.9583V134.024H43.4143V136.232H45.7023V137.432H43.4143ZM50.5704 145.144C49.8984 145.144 49.2957 145.032 48.7624 144.808C48.229 144.573 47.8077 144.253 47.4984 143.848C47.189 143.432 47.0184 142.957 46.9864 142.424H48.4904C48.533 142.861 48.7357 143.219 49.0984 143.496C49.4717 143.773 49.957 143.912 50.5544 143.912C51.109 143.912 51.5464 143.789 51.8664 143.544C52.1864 143.299 52.3464 142.989 52.3464 142.616C52.3464 142.232 52.1757 141.949 51.8344 141.768C51.493 141.576 50.965 141.389 50.2504 141.208C49.5997 141.037 49.0664 140.867 48.6504 140.696C48.245 140.515 47.893 140.253 47.5944 139.912C47.3064 139.56 47.1624 139.101 47.1624 138.536C47.1624 138.088 47.2957 137.677 47.5624 137.304C47.829 136.931 48.2077 136.637 48.6984 136.424C49.189 136.2 49.749 136.088 50.3784 136.088C51.349 136.088 52.133 136.333 52.7304 136.824C53.3277 137.315 53.6477 137.987 53.6904 138.84H52.2344C52.2024 138.381 52.0157 138.013 51.6744 137.736C51.3437 137.459 50.8957 137.32 50.3304 137.32C49.8077 137.32 49.3917 137.432 49.0824 137.656C48.773 137.88 48.6184 138.173 48.6184 138.536C48.6184 138.824 48.709 139.064 48.8904 139.256C49.0824 139.437 49.317 139.587 49.5944 139.704C49.8824 139.811 50.277 139.933 50.7784 140.072C51.4077 140.243 51.9197 140.413 52.3144 140.584C52.709 140.744 53.045 140.989 53.3224 141.32C53.6104 141.651 53.7597 142.083 53.7704 142.616C53.7704 143.096 53.637 143.528 53.3704 143.912C53.1037 144.296 52.725 144.6 52.2344 144.824C51.7544 145.037 51.1997 145.144 50.5704 145.144ZM61.5474 137.864C61.846 137.341 62.2834 136.915 62.8594 136.584C63.4354 136.253 64.0914 136.088 64.8274 136.088C65.6167 136.088 66.326 136.275 66.9554 136.648C67.5847 137.021 68.0807 137.549 68.4434 138.232C68.806 138.904 68.9874 139.688 68.9874 140.584C68.9874 141.469 68.806 142.259 68.4434 142.952C68.0807 143.645 67.5794 144.184 66.9394 144.568C66.31 144.952 65.606 145.144 64.8274 145.144C64.07 145.144 63.4034 144.979 62.8274 144.648C62.262 144.317 61.8354 143.896 61.5474 143.384V145H60.0914V133.16H61.5474V137.864ZM67.4994 140.584C67.4994 139.923 67.366 139.347 67.0994 138.856C66.8327 138.365 66.47 137.992 66.0114 137.736C65.5634 137.48 65.0674 137.352 64.5234 137.352C63.99 137.352 63.494 137.485 63.0354 137.752C62.5874 138.008 62.2247 138.387 61.9474 138.888C61.6807 139.379 61.5474 139.949 61.5474 140.6C61.5474 141.261 61.6807 141.843 61.9474 142.344C62.2247 142.835 62.5874 143.213 63.0354 143.48C63.494 143.736 63.99 143.864 64.5234 143.864C65.0674 143.864 65.5634 143.736 66.0114 143.48C66.47 143.213 66.8327 142.835 67.0994 142.344C67.366 141.843 67.4994 141.256 67.4994 140.584ZM78.9039 140.28C78.9039 140.557 78.8879 140.851 78.8559 141.16H71.8479C71.9012 142.024 72.1945 142.701 72.7279 143.192C73.2719 143.672 73.9279 143.912 74.6959 143.912C75.3252 143.912 75.8479 143.768 76.2639 143.48C76.6905 143.181 76.9892 142.787 77.1599 142.296H78.7279C78.4932 143.139 78.0239 143.827 77.3199 144.36C76.6159 144.883 75.7412 145.144 74.6959 145.144C73.8639 145.144 73.1172 144.957 72.4559 144.584C71.8052 144.211 71.2932 143.683 70.9199 143C70.5465 142.307 70.3599 141.507 70.3599 140.6C70.3599 139.693 70.5412 138.899 70.9039 138.216C71.2665 137.533 71.7732 137.011 72.4239 136.648C73.0852 136.275 73.8425 136.088 74.6959 136.088C75.5279 136.088 76.2639 136.269 76.9039 136.632C77.5439 136.995 78.0345 137.496 78.3759 138.136C78.7279 138.765 78.9039 139.48 78.9039 140.28ZM77.3999 139.976C77.3999 139.421 77.2772 138.947 77.0319 138.552C76.7865 138.147 76.4505 137.843 76.0239 137.64C75.6079 137.427 75.1439 137.32 74.6319 137.32C73.8959 137.32 73.2665 137.555 72.7439 138.024C72.2319 138.493 71.9385 139.144 71.8639 139.976H77.3999ZM82.6018 137.432V142.6C82.6018 143.027 82.6924 143.331 82.8738 143.512C83.0551 143.683 83.3698 143.768 83.8177 143.768H84.8898V145H83.5778C82.7671 145 82.1591 144.813 81.7538 144.44C81.3484 144.067 81.1458 143.453 81.1458 142.6V137.432H80.0098V136.232H81.1458V134.024H82.6018V136.232H84.8898V137.432H82.6018ZM88.4299 137.432V142.6C88.4299 143.027 88.5205 143.331 88.7019 143.512C88.8832 143.683 89.1979 143.768 89.6459 143.768H90.7179V145H89.4059C88.5952 145 87.9872 144.813 87.5819 144.44C87.1765 144.067 86.9739 143.453 86.9739 142.6V137.432H85.8379V136.232H86.9739V134.024H88.4299V136.232H90.7179V137.432H88.4299ZM93.234 134.808C92.9567 134.808 92.722 134.712 92.53 134.52C92.338 134.328 92.242 134.093 92.242 133.816C92.242 133.539 92.338 133.304 92.53 133.112C92.722 132.92 92.9567 132.824 93.234 132.824C93.5007 132.824 93.7247 132.92 93.906 133.112C94.098 133.304 94.194 133.539 94.194 133.816C94.194 134.093 94.098 134.328 93.906 134.52C93.7247 134.712 93.5007 134.808 93.234 134.808ZM93.938 136.232V145H92.482V136.232H93.938ZM100.692 136.072C101.758 136.072 102.622 136.397 103.284 137.048C103.945 137.688 104.276 138.616 104.276 139.832V145H102.836V140.04C102.836 139.165 102.617 138.499 102.18 138.04C101.742 137.571 101.145 137.336 100.388 137.336C99.6195 137.336 99.0062 137.576 98.5475 138.056C98.0995 138.536 97.8755 139.235 97.8755 140.152V145H96.4195V136.232H97.8755V137.48C98.1635 137.032 98.5528 136.685 99.0435 136.44C99.5448 136.195 100.094 136.072 100.692 136.072ZM110.27 136.088C111.027 136.088 111.689 136.253 112.254 136.584C112.83 136.915 113.257 137.331 113.534 137.832V136.232H115.006V145.192C115.006 145.992 114.835 146.701 114.494 147.32C114.153 147.949 113.662 148.44 113.022 148.792C112.393 149.144 111.657 149.32 110.814 149.32C109.662 149.32 108.702 149.048 107.934 148.504C107.166 147.96 106.713 147.219 106.574 146.28H108.014C108.174 146.813 108.505 147.24 109.006 147.56C109.507 147.891 110.11 148.056 110.814 148.056C111.614 148.056 112.265 147.805 112.766 147.304C113.278 146.803 113.534 146.099 113.534 145.192V143.352C113.246 143.864 112.819 144.291 112.254 144.632C111.689 144.973 111.027 145.144 110.27 145.144C109.491 145.144 108.782 144.952 108.142 144.568C107.513 144.184 107.017 143.645 106.654 142.952C106.291 142.259 106.11 141.469 106.11 140.584C106.11 139.688 106.291 138.904 106.654 138.232C107.017 137.549 107.513 137.021 108.142 136.648C108.782 136.275 109.491 136.088 110.27 136.088ZM113.534 140.6C113.534 139.939 113.401 139.363 113.134 138.872C112.867 138.381 112.505 138.008 112.046 137.752C111.598 137.485 111.102 137.352 110.558 137.352C110.014 137.352 109.518 137.48 109.07 137.736C108.622 137.992 108.265 138.365 107.998 138.856C107.731 139.347 107.598 139.923 107.598 140.584C107.598 141.256 107.731 141.843 107.998 142.344C108.265 142.835 108.622 143.213 109.07 143.48C109.518 143.736 110.014 143.864 110.558 143.864C111.102 143.864 111.598 143.736 112.046 143.48C112.505 143.213 112.867 142.835 113.134 142.344C113.401 141.843 113.534 141.261 113.534 140.6ZM118.97 142.984L117.178 147.288H116.202L117.37 142.984H118.97ZM126.36 133.16V145H124.904V133.16H126.36ZM132.665 145.144C131.844 145.144 131.097 144.957 130.425 144.584C129.764 144.211 129.241 143.683 128.857 143C128.484 142.307 128.297 141.507 128.297 140.6C128.297 139.704 128.489 138.915 128.873 138.232C129.268 137.539 129.801 137.011 130.473 136.648C131.145 136.275 131.897 136.088 132.729 136.088C133.561 136.088 134.313 136.275 134.985 136.648C135.657 137.011 136.185 137.533 136.569 138.216C136.964 138.899 137.161 139.693 137.161 140.6C137.161 141.507 136.959 142.307 136.553 143C136.159 143.683 135.62 144.211 134.937 144.584C134.255 144.957 133.497 145.144 132.665 145.144ZM132.665 143.864C133.188 143.864 133.679 143.741 134.137 143.496C134.596 143.251 134.964 142.883 135.241 142.392C135.529 141.901 135.673 141.304 135.673 140.6C135.673 139.896 135.535 139.299 135.257 138.808C134.98 138.317 134.617 137.955 134.169 137.72C133.721 137.475 133.236 137.352 132.713 137.352C132.18 137.352 131.689 137.475 131.241 137.72C130.804 137.955 130.452 138.317 130.185 138.808C129.919 139.299 129.785 139.896 129.785 140.6C129.785 141.315 129.913 141.917 130.169 142.408C130.436 142.899 130.788 143.267 131.225 143.512C131.663 143.747 132.143 143.864 132.665 143.864ZM140.852 137.432V142.6C140.852 143.027 140.942 143.331 141.124 143.512C141.305 143.683 141.62 143.768 142.068 143.768H143.14V145H141.828C141.017 145 140.409 144.813 140.004 144.44C139.598 144.067 139.396 143.453 139.396 142.6V137.432H138.26V136.232H139.396V134.024H140.852V136.232H143.14V137.432H140.852ZM146.68 137.432V142.6C146.68 143.027 146.771 143.331 146.952 143.512C147.133 143.683 147.448 143.768 147.896 143.768H148.968V145H147.656C146.845 145 146.237 144.813 145.832 144.44C145.427 144.067 145.224 143.453 145.224 142.6V137.432H144.088V136.232H145.224V134.024H146.68V136.232H148.968V137.432H146.68ZM158.732 140.28C158.732 140.557 158.716 140.851 158.684 141.16H151.676C151.729 142.024 152.023 142.701 152.556 143.192C153.1 143.672 153.756 143.912 154.524 143.912C155.153 143.912 155.676 143.768 156.092 143.48C156.519 143.181 156.817 142.787 156.988 142.296H158.556C158.321 143.139 157.852 143.827 157.148 144.36C156.444 144.883 155.569 145.144 154.524 145.144C153.692 145.144 152.945 144.957 152.284 144.584C151.633 144.211 151.121 143.683 150.748 143C150.375 142.307 150.188 141.507 150.188 140.6C150.188 139.693 150.369 138.899 150.732 138.216C151.095 137.533 151.601 137.011 152.252 136.648C152.913 136.275 153.671 136.088 154.524 136.088C155.356 136.088 156.092 136.269 156.732 136.632C157.372 136.995 157.863 137.496 158.204 138.136C158.556 138.765 158.732 139.48 158.732 140.28ZM157.228 139.976C157.228 139.421 157.105 138.947 156.86 138.552C156.615 138.147 156.279 137.843 155.852 137.64C155.436 137.427 154.972 137.32 154.46 137.32C153.724 137.32 153.095 137.555 152.572 138.024C152.06 138.493 151.767 139.144 151.692 139.976H157.228ZM162.11 137.656C162.366 137.155 162.729 136.765 163.198 136.488C163.678 136.211 164.259 136.072 164.942 136.072V137.576H164.558C162.926 137.576 162.11 138.461 162.11 140.232V145H160.654V136.232H162.11V137.656ZM174.175 136.232L168.895 149.128H167.391L169.119 144.904L165.583 136.232H167.199L169.951 143.336L172.671 136.232H174.175ZM179.36 140.584C179.36 139.688 179.541 138.904 179.904 138.232C180.267 137.549 180.763 137.021 181.392 136.648C182.032 136.275 182.741 136.088 183.52 136.088C184.288 136.088 184.955 136.253 185.52 136.584C186.085 136.915 186.507 137.331 186.784 137.832V136.232H188.256V145H186.784V143.368C186.496 143.88 186.064 144.307 185.488 144.648C184.923 144.979 184.261 145.144 183.504 145.144C182.725 145.144 182.021 144.952 181.392 144.568C180.763 144.184 180.267 143.645 179.904 142.952C179.541 142.259 179.36 141.469 179.36 140.584ZM186.784 140.6C186.784 139.939 186.651 139.363 186.384 138.872C186.117 138.381 185.755 138.008 185.296 137.752C184.848 137.485 184.352 137.352 183.808 137.352C183.264 137.352 182.768 137.48 182.32 137.736C181.872 137.992 181.515 138.365 181.248 138.856C180.981 139.347 180.848 139.923 180.848 140.584C180.848 141.256 180.981 141.843 181.248 142.344C181.515 142.835 181.872 143.213 182.32 143.48C182.768 143.736 183.264 143.864 183.808 143.864C184.352 143.864 184.848 143.736 185.296 143.48C185.755 143.213 186.117 142.835 186.384 142.344C186.651 141.843 186.784 141.261 186.784 140.6ZM194.988 136.072C196.055 136.072 196.919 136.397 197.58 137.048C198.242 137.688 198.572 138.616 198.572 139.832V145H197.132V140.04C197.132 139.165 196.914 138.499 196.476 138.04C196.039 137.571 195.442 137.336 194.684 137.336C193.916 137.336 193.303 137.576 192.844 138.056C192.396 138.536 192.172 139.235 192.172 140.152V145H190.716V136.232H192.172V137.48C192.46 137.032 192.85 136.685 193.34 136.44C193.842 136.195 194.391 136.072 194.988 136.072ZM200.407 140.584C200.407 139.688 200.588 138.904 200.951 138.232C201.313 137.549 201.809 137.021 202.439 136.648C203.079 136.275 203.793 136.088 204.583 136.088C205.265 136.088 205.9 136.248 206.487 136.568C207.073 136.877 207.521 137.288 207.831 137.8V133.16H209.303V145H207.831V143.352C207.543 143.875 207.116 144.307 206.551 144.648C205.985 144.979 205.324 145.144 204.567 145.144C203.788 145.144 203.079 144.952 202.439 144.568C201.809 144.184 201.313 143.645 200.951 142.952C200.588 142.259 200.407 141.469 200.407 140.584ZM207.831 140.6C207.831 139.939 207.697 139.363 207.431 138.872C207.164 138.381 206.801 138.008 206.343 137.752C205.895 137.485 205.399 137.352 204.855 137.352C204.311 137.352 203.815 137.48 203.367 137.736C202.919 137.992 202.561 138.365 202.295 138.856C202.028 139.347 201.895 139.923 201.895 140.584C201.895 141.256 202.028 141.843 202.295 142.344C202.561 142.835 202.919 143.213 203.367 143.48C203.815 143.736 204.311 143.864 204.855 143.864C205.399 143.864 205.895 143.736 206.343 143.48C206.801 143.213 207.164 142.835 207.431 142.344C207.697 141.843 207.831 141.261 207.831 140.6ZM6.688 163.864C6.98667 163.341 7.424 162.915 8 162.584C8.576 162.253 9.232 162.088 9.968 162.088C10.7573 162.088 11.4667 162.275 12.096 162.648C12.7253 163.021 13.2213 163.549 13.584 164.232C13.9467 164.904 14.128 165.688 14.128 166.584C14.128 167.469 13.9467 168.259 13.584 168.952C13.2213 169.645 12.72 170.184 12.08 170.568C11.4507 170.952 10.7467 171.144 9.968 171.144C9.21067 171.144 8.544 170.979 7.968 170.648C7.40267 170.317 6.976 169.896 6.688 169.384V171H5.232V159.16H6.688V163.864ZM12.64 166.584C12.64 165.923 12.5067 165.347 12.24 164.856C11.9733 164.365 11.6107 163.992 11.152 163.736C10.704 163.48 10.208 163.352 9.664 163.352C9.13067 163.352 8.63467 163.485 8.176 163.752C7.728 164.008 7.36533 164.387 7.088 164.888C6.82133 165.379 6.688 165.949 6.688 166.6C6.688 167.261 6.82133 167.843 7.088 168.344C7.36533 168.835 7.728 169.213 8.176 169.48C8.63467 169.736 9.13067 169.864 9.664 169.864C10.208 169.864 10.704 169.736 11.152 169.48C11.6107 169.213 11.9733 168.835 12.24 168.344C12.5067 167.843 12.64 167.256 12.64 166.584ZM16.7965 160.808C16.5192 160.808 16.2845 160.712 16.0925 160.52C15.9005 160.328 15.8045 160.093 15.8045 159.816C15.8045 159.539 15.9005 159.304 16.0925 159.112C16.2845 158.92 16.5192 158.824 16.7965 158.824C17.0632 158.824 17.2872 158.92 17.4685 159.112C17.6605 159.304 17.7565 159.539 17.7565 159.816C17.7565 160.093 17.6605 160.328 17.4685 160.52C17.2872 160.712 17.0632 160.808 16.7965 160.808ZM17.5005 162.232V171H16.0445V162.232H17.5005ZM24.254 162.072C25.3207 162.072 26.1847 162.397 26.846 163.048C27.5073 163.688 27.838 164.616 27.838 165.832V171H26.398V166.04C26.398 165.165 26.1793 164.499 25.742 164.04C25.3047 163.571 24.7073 163.336 23.95 163.336C23.182 163.336 22.5687 163.576 22.11 164.056C21.662 164.536 21.438 165.235 21.438 166.152V171H19.982V162.232H21.438V163.48C21.726 163.032 22.1153 162.685 22.606 162.44C23.1073 162.195 23.6567 162.072 24.254 162.072ZM33.8324 162.088C34.5897 162.088 35.251 162.253 35.8164 162.584C36.3924 162.915 36.819 163.331 37.0964 163.832V162.232H38.5684V171.192C38.5684 171.992 38.3977 172.701 38.0564 173.32C37.715 173.949 37.2244 174.44 36.5844 174.792C35.955 175.144 35.219 175.32 34.3764 175.32C33.2244 175.32 32.2644 175.048 31.4964 174.504C30.7284 173.96 30.275 173.219 30.1364 172.28H31.5764C31.7364 172.813 32.067 173.24 32.5684 173.56C33.0697 173.891 33.6724 174.056 34.3764 174.056C35.1764 174.056 35.827 173.805 36.3284 173.304C36.8404 172.803 37.0964 172.099 37.0964 171.192V169.352C36.8084 169.864 36.3817 170.291 35.8164 170.632C35.251 170.973 34.5897 171.144 33.8324 171.144C33.0537 171.144 32.3444 170.952 31.7044 170.568C31.075 170.184 30.579 169.645 30.2164 168.952C29.8537 168.259 29.6724 167.469 29.6724 166.584C29.6724 165.688 29.8537 164.904 30.2164 164.232C30.579 163.549 31.075 163.021 31.7044 162.648C32.3444 162.275 33.0537 162.088 33.8324 162.088ZM37.0964 166.6C37.0964 165.939 36.963 165.363 36.6964 164.872C36.4297 164.381 36.067 164.008 35.6084 163.752C35.1604 163.485 34.6644 163.352 34.1204 163.352C33.5764 163.352 33.0804 163.48 32.6324 163.736C32.1844 163.992 31.827 164.365 31.5604 164.856C31.2937 165.347 31.1604 165.923 31.1604 166.584C31.1604 167.256 31.2937 167.843 31.5604 168.344C31.827 168.835 32.1844 169.213 32.6324 169.48C33.0804 169.736 33.5764 169.864 34.1204 169.864C34.6644 169.864 35.1604 169.736 35.6084 169.48C36.067 169.213 36.4297 168.835 36.6964 168.344C36.963 167.843 37.0964 167.261 37.0964 166.6ZM44.8529 171.144C44.0315 171.144 43.2849 170.957 42.6129 170.584C41.9515 170.211 41.4289 169.683 41.0449 169C40.6715 168.307 40.4849 167.507 40.4849 166.6C40.4849 165.704 40.6769 164.915 41.0609 164.232C41.4555 163.539 41.9889 163.011 42.6609 162.648C43.3329 162.275 44.0849 162.088 44.9169 162.088C45.7489 162.088 46.5009 162.275 47.1729 162.648C47.8449 163.011 48.3729 163.533 48.7569 164.216C49.1515 164.899 49.3489 165.693 49.3489 166.6C49.3489 167.507 49.1462 168.307 48.7409 169C48.3462 169.683 47.8075 170.211 47.1249 170.584C46.4422 170.957 45.6849 171.144 44.8529 171.144ZM44.8529 169.864C45.3755 169.864 45.8662 169.741 46.3249 169.496C46.7835 169.251 47.1515 168.883 47.4289 168.392C47.7169 167.901 47.8609 167.304 47.8609 166.6C47.8609 165.896 47.7222 165.299 47.4449 164.808C47.1675 164.317 46.8049 163.955 46.3569 163.72C45.9089 163.475 45.4235 163.352 44.9009 163.352C44.3675 163.352 43.8769 163.475 43.4289 163.72C42.9915 163.955 42.6395 164.317 42.3729 164.808C42.1062 165.299 41.9729 165.896 41.9729 166.6C41.9729 167.315 42.1009 167.917 42.3569 168.408C42.6235 168.899 42.9755 169.267 43.4129 169.512C43.8502 169.747 44.3302 169.864 44.8529 169.864ZM56.9849 163.848C57.2729 163.347 57.6995 162.931 58.2649 162.6C58.8409 162.259 59.5075 162.088 60.2649 162.088C61.0435 162.088 61.7475 162.275 62.3769 162.648C63.0169 163.021 63.5182 163.549 63.8809 164.232C64.2435 164.904 64.4249 165.688 64.4249 166.584C64.4249 167.469 64.2435 168.259 63.8809 168.952C63.5182 169.645 63.0169 170.184 62.3769 170.568C61.7475 170.952 61.0435 171.144 60.2649 171.144C59.5182 171.144 58.8569 170.979 58.2809 170.648C57.7155 170.307 57.2835 169.885 56.9849 169.384V175.16H55.5289V162.232H56.9849V163.848ZM62.9369 166.584C62.9369 165.923 62.8035 165.347 62.5369 164.856C62.2702 164.365 61.9075 163.992 61.4489 163.736C61.0009 163.48 60.5049 163.352 59.9609 163.352C59.4275 163.352 58.9315 163.485 58.4729 163.752C58.0249 164.008 57.6622 164.387 57.3849 164.888C57.1182 165.379 56.9849 165.949 56.9849 166.6C56.9849 167.261 57.1182 167.843 57.3849 168.344C57.6622 168.835 58.0249 169.213 58.4729 169.48C58.9315 169.736 59.4275 169.864 59.9609 169.864C60.5049 169.864 61.0009 169.736 61.4489 169.48C61.9075 169.213 62.2702 168.835 62.5369 168.344C62.8035 167.843 62.9369 167.256 62.9369 166.584ZM67.7974 159.16V171H66.3414V159.16H67.7974ZM69.7349 166.584C69.7349 165.688 69.9162 164.904 70.2789 164.232C70.6415 163.549 71.1375 163.021 71.7669 162.648C72.4069 162.275 73.1162 162.088 73.8949 162.088C74.6629 162.088 75.3295 162.253 75.8949 162.584C76.4602 162.915 76.8815 163.331 77.1589 163.832V162.232H78.6309V171H77.1589V169.368C76.8709 169.88 76.4389 170.307 75.8629 170.648C75.2975 170.979 74.6362 171.144 73.8789 171.144C73.1002 171.144 72.3962 170.952 71.7669 170.568C71.1375 170.184 70.6415 169.645 70.2789 168.952C69.9162 168.259 69.7349 167.469 69.7349 166.584ZM77.1589 166.6C77.1589 165.939 77.0255 165.363 76.7589 164.872C76.4922 164.381 76.1295 164.008 75.6709 163.752C75.2229 163.485 74.7269 163.352 74.1829 163.352C73.6389 163.352 73.1429 163.48 72.6949 163.736C72.2469 163.992 71.8895 164.365 71.6229 164.856C71.3562 165.347 71.2229 165.923 71.2229 166.584C71.2229 167.256 71.3562 167.843 71.6229 168.344C71.8895 168.835 72.2469 169.213 72.6949 169.48C73.1429 169.736 73.6389 169.864 74.1829 169.864C74.7269 169.864 75.2229 169.736 75.6709 169.48C76.1295 169.213 76.4922 168.835 76.7589 168.344C77.0255 167.843 77.1589 167.261 77.1589 166.6ZM88.6434 162.232L83.3634 175.128H81.8594L83.5874 170.904L80.0514 162.232H81.6674L84.4194 169.336L87.1394 162.232H88.6434ZM90.859 160.808C90.5817 160.808 90.347 160.712 90.155 160.52C89.963 160.328 89.867 160.093 89.867 159.816C89.867 159.539 89.963 159.304 90.155 159.112C90.347 158.92 90.5817 158.824 90.859 158.824C91.1257 158.824 91.3497 158.92 91.531 159.112C91.723 159.304 91.819 159.539 91.819 159.816C91.819 160.093 91.723 160.328 91.531 160.52C91.3497 160.712 91.1257 160.808 90.859 160.808ZM91.563 162.232V171H90.107V162.232H91.563ZM98.3165 162.072C99.3832 162.072 100.247 162.397 100.909 163.048C101.57 163.688 101.901 164.616 101.901 165.832V171H100.461V166.04C100.461 165.165 100.242 164.499 99.8045 164.04C99.3672 163.571 98.7698 163.336 98.0125 163.336C97.2445 163.336 96.6312 163.576 96.1725 164.056C95.7245 164.536 95.5005 165.235 95.5005 166.152V171H94.0445V162.232H95.5005V163.48C95.7885 163.032 96.1778 162.685 96.6685 162.44C97.1698 162.195 97.7192 162.072 98.3165 162.072ZM107.895 162.088C108.652 162.088 109.314 162.253 109.879 162.584C110.455 162.915 110.882 163.331 111.159 163.832V162.232H112.631V171.192C112.631 171.992 112.46 172.701 112.119 173.32C111.778 173.949 111.287 174.44 110.647 174.792C110.018 175.144 109.282 175.32 108.439 175.32C107.287 175.32 106.327 175.048 105.559 174.504C104.791 173.96 104.338 173.219 104.199 172.28H105.639C105.799 172.813 106.13 173.24 106.631 173.56C107.132 173.891 107.735 174.056 108.439 174.056C109.239 174.056 109.89 173.805 110.391 173.304C110.903 172.803 111.159 172.099 111.159 171.192V169.352C110.871 169.864 110.444 170.291 109.879 170.632C109.314 170.973 108.652 171.144 107.895 171.144C107.116 171.144 106.407 170.952 105.767 170.568C105.138 170.184 104.642 169.645 104.279 168.952C103.916 168.259 103.735 167.469 103.735 166.584C103.735 165.688 103.916 164.904 104.279 164.232C104.642 163.549 105.138 163.021 105.767 162.648C106.407 162.275 107.116 162.088 107.895 162.088ZM111.159 166.6C111.159 165.939 111.026 165.363 110.759 164.872C110.492 164.381 110.13 164.008 109.671 163.752C109.223 163.485 108.727 163.352 108.183 163.352C107.639 163.352 107.143 163.48 106.695 163.736C106.247 163.992 105.89 164.365 105.623 164.856C105.356 165.347 105.223 165.923 105.223 166.584C105.223 167.256 105.356 167.843 105.623 168.344C105.89 168.835 106.247 169.213 106.695 169.48C107.143 169.736 107.639 169.864 108.183 169.864C108.727 169.864 109.223 169.736 109.671 169.48C110.13 169.213 110.492 168.835 110.759 168.344C111.026 167.843 111.159 167.261 111.159 166.6ZM122.925 163.432H121.085V171H119.629V163.432H118.493V162.232H119.629V161.608C119.629 160.627 119.88 159.912 120.381 159.464C120.893 159.005 121.709 158.776 122.829 158.776V159.992C122.189 159.992 121.736 160.12 121.469 160.376C121.213 160.621 121.085 161.032 121.085 161.608V162.232H122.925V163.432ZM128.447 171.144C127.625 171.144 126.879 170.957 126.207 170.584C125.545 170.211 125.023 169.683 124.639 169C124.265 168.307 124.079 167.507 124.079 166.6C124.079 165.704 124.271 164.915 124.655 164.232C125.049 163.539 125.583 163.011 126.255 162.648C126.927 162.275 127.679 162.088 128.511 162.088C129.343 162.088 130.095 162.275 130.767 162.648C131.439 163.011 131.967 163.533 132.351 164.216C132.745 164.899 132.943 165.693 132.943 166.6C132.943 167.507 132.74 168.307 132.335 169C131.94 169.683 131.401 170.211 130.719 170.584C130.036 170.957 129.279 171.144 128.447 171.144ZM128.447 169.864C128.969 169.864 129.46 169.741 129.919 169.496C130.377 169.251 130.745 168.883 131.023 168.392C131.311 167.901 131.455 167.304 131.455 166.6C131.455 165.896 131.316 165.299 131.039 164.808C130.761 164.317 130.399 163.955 129.951 163.72C129.503 163.475 129.017 163.352 128.495 163.352C127.961 163.352 127.471 163.475 127.023 163.72C126.585 163.955 126.233 164.317 125.967 164.808C125.7 165.299 125.567 165.896 125.567 166.6C125.567 167.315 125.695 167.917 125.951 168.408C126.217 168.899 126.569 169.267 127.007 169.512C127.444 169.747 127.924 169.864 128.447 169.864ZM136.313 163.656C136.569 163.155 136.932 162.765 137.401 162.488C137.881 162.211 138.462 162.072 139.145 162.072V163.576H138.761C137.129 163.576 136.313 164.461 136.313 166.232V171H134.857V162.232H136.313V163.656ZM146.867 163.432V168.6C146.867 169.027 146.958 169.331 147.139 169.512C147.321 169.683 147.635 169.768 148.083 169.768H149.155V171H147.843C147.033 171 146.425 170.813 146.019 170.44C145.614 170.067 145.411 169.453 145.411 168.6V163.432H144.275V162.232H145.411V160.024H146.867V162.232H149.155V163.432H146.867ZM155.272 162.072C155.933 162.072 156.53 162.216 157.064 162.504C157.597 162.781 158.013 163.203 158.312 163.768C158.621 164.333 158.776 165.021 158.776 165.832V171H157.336V166.04C157.336 165.165 157.117 164.499 156.68 164.04C156.242 163.571 155.645 163.336 154.888 163.336C154.12 163.336 153.506 163.576 153.048 164.056C152.6 164.536 152.376 165.235 152.376 166.152V171H150.92V159.16H152.376V163.48C152.664 163.032 153.058 162.685 153.56 162.44C154.072 162.195 154.642 162.072 155.272 162.072ZM169.154 166.28C169.154 166.557 169.138 166.851 169.106 167.16H162.098C162.151 168.024 162.445 168.701 162.978 169.192C163.522 169.672 164.178 169.912 164.946 169.912C165.575 169.912 166.098 169.768 166.514 169.48C166.941 169.181 167.239 168.787 167.41 168.296H168.978C168.743 169.139 168.274 169.827 167.57 170.36C166.866 170.883 165.991 171.144 164.946 171.144C164.114 171.144 163.367 170.957 162.706 170.584C162.055 170.211 161.543 169.683 161.17 169C160.797 168.307 160.61 167.507 160.61 166.6C160.61 165.693 160.791 164.899 161.154 164.216C161.517 163.533 162.023 163.011 162.674 162.648C163.335 162.275 164.093 162.088 164.946 162.088C165.778 162.088 166.514 162.269 167.154 162.632C167.794 162.995 168.285 163.496 168.626 164.136C168.978 164.765 169.154 165.48 169.154 166.28ZM167.65 165.976C167.65 165.421 167.527 164.947 167.282 164.552C167.037 164.147 166.701 163.843 166.274 163.64C165.858 163.427 165.394 163.32 164.882 163.32C164.146 163.32 163.517 163.555 162.994 164.024C162.482 164.493 162.189 165.144 162.114 165.976H167.65ZM178.909 163.432H177.069V171H175.613V163.432H174.477V162.232H175.613V161.608C175.613 160.627 175.864 159.912 176.365 159.464C176.877 159.005 177.693 158.776 178.813 158.776V159.992C178.173 159.992 177.72 160.12 177.453 160.376C177.197 160.621 177.069 161.032 177.069 161.608V162.232H178.909V163.432ZM188.383 162.232V171H186.927V169.704C186.65 170.152 186.26 170.504 185.759 170.76C185.268 171.005 184.724 171.128 184.127 171.128C183.444 171.128 182.831 170.989 182.287 170.712C181.743 170.424 181.311 169.997 180.991 169.432C180.682 168.867 180.527 168.179 180.527 167.368V162.232H181.967V167.176C181.967 168.04 182.186 168.707 182.623 169.176C183.06 169.635 183.658 169.864 184.415 169.864C185.194 169.864 185.807 169.624 186.255 169.144C186.703 168.664 186.927 167.965 186.927 167.048V162.232H188.383ZM195.113 162.072C196.18 162.072 197.044 162.397 197.705 163.048C198.367 163.688 198.697 164.616 198.697 165.832V171H197.257V166.04C197.257 165.165 197.039 164.499 196.601 164.04C196.164 163.571 195.567 163.336 194.809 163.336C194.041 163.336 193.428 163.576 192.969 164.056C192.521 164.536 192.297 165.235 192.297 166.152V171H190.841V162.232H192.297V163.48C192.585 163.032 192.975 162.685 193.465 162.44C193.967 162.195 194.516 162.072 195.113 162.072Z" fill="#22343D"/>
<path d="M10.886 88.644C12.4993 88.644 13.9147 88.9593 15.132 89.59C16.364 90.2207 17.31 91.1227 17.97 92.296C18.6447 93.4547 18.982 94.804 18.982 96.344C18.982 97.884 18.6447 99.2333 17.97 100.392C17.31 101.536 16.364 102.423 15.132 103.054C13.9147 103.685 12.4993 104 10.886 104H5.518V88.644H10.886ZM10.776 101.382C12.3893 101.382 13.636 100.942 14.516 100.062C15.396 99.182 15.836 97.9427 15.836 96.344C15.836 94.7453 15.396 93.4987 14.516 92.604C13.636 91.6947 12.3893 91.24 10.776 91.24H8.598V101.382H10.776ZM32.6175 97.642C32.6175 98.082 32.5882 98.478 32.5295 98.83H23.6195C23.6929 99.71 24.0009 100.399 24.5435 100.898C25.0862 101.397 25.7535 101.646 26.5455 101.646C27.6895 101.646 28.5035 101.155 28.9875 100.172H32.3095C31.9575 101.345 31.2829 102.313 30.2855 103.076C29.2882 103.824 28.0635 104.198 26.6115 104.198C25.4382 104.198 24.3822 103.941 23.4435 103.428C22.5195 102.9 21.7935 102.159 21.2655 101.206C20.7522 100.253 20.4955 99.1527 20.4955 97.906C20.4955 96.6447 20.7522 95.5373 21.2655 94.584C21.7789 93.6307 22.4975 92.8973 23.4215 92.384C24.3455 91.8707 25.4089 91.614 26.6115 91.614C27.7702 91.614 28.8042 91.8633 29.7135 92.362C30.6375 92.8607 31.3489 93.572 31.8475 94.496C32.3609 95.4053 32.6175 96.454 32.6175 97.642ZM29.4275 96.762C29.4129 95.97 29.1269 95.3393 28.5695 94.87C28.0122 94.386 27.3302 94.144 26.5235 94.144C25.7609 94.144 25.1155 94.3787 24.5875 94.848C24.0742 95.3027 23.7589 95.9407 23.6415 96.762H29.4275ZM39.5297 104.198C38.5323 104.198 37.6377 104.022 36.8457 103.67C36.0537 103.303 35.423 102.812 34.9537 102.196C34.499 101.58 34.2497 100.898 34.2057 100.15H37.3077C37.3663 100.619 37.5937 101.008 37.9897 101.316C38.4003 101.624 38.9063 101.778 39.5077 101.778C40.0943 101.778 40.549 101.661 40.8717 101.426C41.209 101.191 41.3777 100.891 41.3777 100.524C41.3777 100.128 41.1723 99.8347 40.7617 99.644C40.3657 99.4387 39.7277 99.2187 38.8477 98.984C37.9383 98.764 37.1903 98.5367 36.6037 98.302C36.0317 98.0673 35.533 97.708 35.1077 97.224C34.697 96.74 34.4917 96.0873 34.4917 95.266C34.4917 94.5913 34.6823 93.9753 35.0637 93.418C35.4597 92.8607 36.017 92.4207 36.7357 92.098C37.469 91.7753 38.327 91.614 39.3097 91.614C40.7617 91.614 41.9203 91.9807 42.7857 92.714C43.651 93.4327 44.1277 94.408 44.2157 95.64H41.2677C41.2237 95.156 41.0183 94.7747 40.6517 94.496C40.2997 94.2027 39.823 94.056 39.2217 94.056C38.6643 94.056 38.2317 94.1587 37.9237 94.364C37.6303 94.5693 37.4837 94.8553 37.4837 95.222C37.4837 95.6327 37.689 95.948 38.0997 96.168C38.5103 96.3733 39.1483 96.586 40.0137 96.806C40.8937 97.026 41.6197 97.2533 42.1917 97.488C42.7637 97.7227 43.255 98.0893 43.6657 98.588C44.091 99.072 44.311 99.7173 44.3257 100.524C44.3257 101.228 44.1277 101.859 43.7317 102.416C43.3503 102.973 42.793 103.413 42.0597 103.736C41.341 104.044 40.4977 104.198 39.5297 104.198ZM48.4159 90.36C47.8733 90.36 47.4186 90.1913 47.0519 89.854C46.6999 89.502 46.5239 89.0693 46.5239 88.556C46.5239 88.0427 46.6999 87.6173 47.0519 87.28C47.4186 86.928 47.8733 86.752 48.4159 86.752C48.9586 86.752 49.4059 86.928 49.7579 87.28C50.1246 87.6173 50.3079 88.0427 50.3079 88.556C50.3079 89.0693 50.1246 89.502 49.7579 89.854C49.4059 90.1913 48.9586 90.36 48.4159 90.36ZM49.9339 91.812V104H46.8539V91.812H49.9339ZM57.751 91.614C58.6603 91.614 59.4597 91.7973 60.149 92.164C60.8383 92.516 61.381 92.978 61.777 93.55V91.812H64.879V104.088C64.879 105.217 64.6517 106.222 64.197 107.102C63.7423 107.997 63.0603 108.701 62.151 109.214C61.2417 109.742 60.1417 110.006 58.851 110.006C57.1203 110.006 55.6977 109.603 54.583 108.796C53.483 107.989 52.8597 106.889 52.713 105.496H55.771C55.9323 106.053 56.277 106.493 56.805 106.816C57.3477 107.153 58.0003 107.322 58.763 107.322C59.6577 107.322 60.3837 107.051 60.941 106.508C61.4983 105.98 61.777 105.173 61.777 104.088V102.196C61.381 102.768 60.831 103.245 60.127 103.626C59.4377 104.007 58.6457 104.198 57.751 104.198C56.7243 104.198 55.7857 103.934 54.935 103.406C54.0843 102.878 53.4097 102.137 52.911 101.184C52.427 100.216 52.185 99.1087 52.185 97.862C52.185 96.63 52.427 95.5373 52.911 94.584C53.4097 93.6307 54.077 92.8973 54.913 92.384C55.7637 91.8707 56.7097 91.614 57.751 91.614ZM61.777 97.906C61.777 97.158 61.6303 96.52 61.337 95.992C61.0437 95.4493 60.6477 95.0387 60.149 94.76C59.6503 94.4667 59.115 94.32 58.543 94.32C57.971 94.32 57.443 94.4593 56.959 94.738C56.475 95.0167 56.079 95.4273 55.771 95.97C55.4777 96.498 55.331 97.1287 55.331 97.862C55.331 98.5953 55.4777 99.2407 55.771 99.798C56.079 100.341 56.475 100.759 56.959 101.052C57.4577 101.345 57.9857 101.492 58.543 101.492C59.115 101.492 59.6503 101.353 60.149 101.074C60.6477 100.781 61.0437 100.37 61.337 99.842C61.6303 99.2993 61.777 98.654 61.777 97.906ZM74.6411 91.636C76.0931 91.636 77.2665 92.098 78.1611 93.022C79.0558 93.9313 79.5031 95.2073 79.5031 96.85V104H76.4231V97.268C76.4231 96.3 76.1811 95.5593 75.6971 95.046C75.2131 94.518 74.5531 94.254 73.7171 94.254C72.8665 94.254 72.1918 94.518 71.6931 95.046C71.2091 95.5593 70.9671 96.3 70.9671 97.268V104H67.8871V91.812H70.9671V93.33C71.3778 92.802 71.8985 92.3913 72.5291 92.098C73.1745 91.79 73.8785 91.636 74.6411 91.636ZM92.3383 104.198C91.3409 104.198 90.4463 104.022 89.6543 103.67C88.8623 103.303 88.2316 102.812 87.7623 102.196C87.3076 101.58 87.0583 100.898 87.0143 100.15H90.1163C90.1749 100.619 90.4023 101.008 90.7983 101.316C91.2089 101.624 91.7149 101.778 92.3163 101.778C92.9029 101.778 93.3576 101.661 93.6803 101.426C94.0176 101.191 94.1863 100.891 94.1863 100.524C94.1863 100.128 93.9809 99.8347 93.5703 99.644C93.1743 99.4387 92.5363 99.2187 91.6562 98.984C90.7469 98.764 89.9989 98.5367 89.4123 98.302C88.8403 98.0673 88.3416 97.708 87.9163 97.224C87.5056 96.74 87.3003 96.0873 87.3003 95.266C87.3003 94.5913 87.4909 93.9753 87.8723 93.418C88.2683 92.8607 88.8256 92.4207 89.5443 92.098C90.2776 91.7753 91.1356 91.614 92.1183 91.614C93.5703 91.614 94.7289 91.9807 95.5943 92.714C96.4596 93.4327 96.9363 94.408 97.0243 95.64H94.0763C94.0323 95.156 93.8269 94.7747 93.4603 94.496C93.1083 94.2027 92.6316 94.056 92.0303 94.056C91.4729 94.056 91.0403 94.1587 90.7323 94.364C90.4389 94.5693 90.2923 94.8553 90.2923 95.222C90.2923 95.6327 90.4976 95.948 90.9083 96.168C91.3189 96.3733 91.9569 96.586 92.8223 96.806C93.7023 97.026 94.4283 97.2533 95.0003 97.488C95.5723 97.7227 96.0636 98.0893 96.4743 98.588C96.8996 99.072 97.1196 99.7173 97.1343 100.524C97.1343 101.228 96.9363 101.859 96.5403 102.416C96.1589 102.973 95.6016 103.413 94.8683 103.736C94.1496 104.044 93.3063 104.198 92.3383 104.198ZM111.169 91.812V104H108.067V102.46C107.671 102.988 107.15 103.406 106.505 103.714C105.874 104.007 105.185 104.154 104.437 104.154C103.483 104.154 102.64 103.956 101.907 103.56C101.173 103.149 100.594 102.555 100.169 101.778C99.7579 100.986 99.5525 100.047 99.5525 98.962V91.812H102.633V98.522C102.633 99.49 102.875 100.238 103.359 100.766C103.843 101.279 104.503 101.536 105.339 101.536C106.189 101.536 106.857 101.279 107.341 100.766C107.825 100.238 108.067 99.49 108.067 98.522V91.812H111.169ZM117.287 93.704C117.683 93.0587 118.197 92.5527 118.827 92.186C119.473 91.8193 120.206 91.636 121.027 91.636V94.87H120.213C119.245 94.87 118.512 95.0973 118.013 95.552C117.529 96.0067 117.287 96.7987 117.287 97.928V104H114.207V91.812H117.287V93.704ZM128.184 101.162L131.264 91.812H134.542L130.032 104H126.292L121.804 91.812H125.104L128.184 101.162ZM147.602 97.642C147.602 98.082 147.573 98.478 147.514 98.83H138.604C138.677 99.71 138.985 100.399 139.528 100.898C140.071 101.397 140.738 101.646 141.53 101.646C142.674 101.646 143.488 101.155 143.972 100.172H147.294C146.942 101.345 146.267 102.313 145.27 103.076C144.273 103.824 143.048 104.198 141.596 104.198C140.423 104.198 139.367 103.941 138.428 103.428C137.504 102.9 136.778 102.159 136.25 101.206C135.737 100.253 135.48 99.1527 135.48 97.906C135.48 96.6447 135.737 95.5373 136.25 94.584C136.763 93.6307 137.482 92.8973 138.406 92.384C139.33 91.8707 140.393 91.614 141.596 91.614C142.755 91.614 143.789 91.8633 144.698 92.362C145.622 92.8607 146.333 93.572 146.832 94.496C147.345 95.4053 147.602 96.454 147.602 97.642ZM144.412 96.762C144.397 95.97 144.111 95.3393 143.554 94.87C142.997 94.386 142.315 94.144 141.508 94.144C140.745 94.144 140.1 94.3787 139.572 94.848C139.059 95.3027 138.743 95.9407 138.626 96.762H144.412ZM161.51 91.812L153.964 109.764H150.686L153.326 103.692L148.442 91.812H151.896L155.042 100.326L158.232 91.812H161.51ZM167.834 104.198C166.837 104.198 165.942 104.022 165.15 103.67C164.358 103.303 163.728 102.812 163.258 102.196C162.804 101.58 162.554 100.898 162.51 100.15H165.612C165.671 100.619 165.898 101.008 166.294 101.316C166.705 101.624 167.211 101.778 167.812 101.778C168.399 101.778 168.854 101.661 169.176 101.426C169.514 101.191 169.682 100.891 169.682 100.524C169.682 100.128 169.477 99.8347 169.066 99.644C168.67 99.4387 168.032 99.2187 167.152 98.984C166.243 98.764 165.495 98.5367 164.908 98.302C164.336 98.0673 163.838 97.708 163.412 97.224C163.002 96.74 162.796 96.0873 162.796 95.266C162.796 94.5913 162.987 93.9753 163.368 93.418C163.764 92.8607 164.322 92.4207 165.04 92.098C165.774 91.7753 166.632 91.614 167.614 91.614C169.066 91.614 170.225 91.9807 171.09 92.714C171.956 93.4327 172.432 94.408 172.52 95.64H169.572C169.528 95.156 169.323 94.7747 168.956 94.496C168.604 94.2027 168.128 94.056 167.526 94.056C166.969 94.056 166.536 94.1587 166.228 94.364C165.935 94.5693 165.788 94.8553 165.788 95.222C165.788 95.6327 165.994 95.948 166.404 96.168C166.815 96.3733 167.453 96.586 168.318 96.806C169.198 97.026 169.924 97.2533 170.496 97.488C171.068 97.7227 171.56 98.0893 171.97 98.588C172.396 99.072 172.616 99.7173 172.63 100.524C172.63 101.228 172.432 101.859 172.036 102.416C171.655 102.973 171.098 103.413 170.364 103.736C169.646 104.044 168.802 104.198 167.834 104.198Z" fill="#22343D"/>
<defs>
<filter id="filter0_d" x="0" y="0" width="58" height="58" filterUnits="userSpaceOnUse" color-interpolation-filters="sRGB">
<feFlood flood-opacity="0" result="BackgroundImageFix"/>
<feColorMatrix in="SourceAlpha" type="matrix" values="0 0 0 0 0 0 0 0 0 0 0 0 0 0 0 0 0 0 127 0" result="hardAlpha"/>
<feOffset dy="4"/>
<feGaussianBlur stdDeviation="2"/>
<feColorMatrix type="matrix" values="0 0 0 0 0 0 0 0 0 0 0 0 0 0 0 0 0 0 0.25 0"/>
<feBlend mode="normal" in2="BackgroundImageFix" result="effect1_dropShadow"/>
<feBlend mode="normal" in="SourceGraphic" in2="effect1_dropShadow" result="shape"/>
</filter>
</defs>
</svg>
